<?xml version='1.0' encoding='utf-8'?>
<svg xmlns="http://www.w3.org/2000/svg" width="277pt" height="277pt" viewBox="-6 -3 277 277"><g transform="translate(-3.533599202392823 15.906400797607176) scale(2.28913260219342)"><path d="M 5.65000000 105.95000000 L 5.65000000 5.65000000" fill="none" stroke="rgb(128,128,128)" stroke-width="0.3" data-role="inner_grid" /><path d="M 5.65000000 105.95000000 L 105.95000000 105.95000000" fill="none" stroke="rgb(128,128,128)" stroke-width="0.3" data-role="inner_grid" /><path d="M 18.18750000 105.95000000 L 18.18750000 5.65000000" fill="none" stroke="rgb(128,128,128)" stroke-width="0.3" data-role="inner_grid" /><path d="M 5.65000000 93.41250000 L 105.95000000 93.41250000" fill="none" stroke="rgb(128,128,128)" stroke-width="0.3" data-role="inner_grid" /><path d="M 30.72500000 105.95000000 L 30.72500000 5.65000000" fill="none" stroke="rgb(128,128,128)" stroke-width="0.3" data-role="inner_grid" /><path d="M 5.65000000 80.87500000 L 105.95000000 80.87500000" fill="none" stroke="rgb(128,128,128)" stroke-width="0.3" data-role="inner_grid" /><path d="M 43.26250000 105.95000000 L 43.26250000 5.65000000" fill="none" stroke="rgb(128,128,128)" stroke-width="0.3" data-role="inner_grid" /><path d="M 5.65000000 68.33750000 L 105.95000000 68.33750000" fill="none" stroke="rgb(128,128,128)" stroke-width="0.3" data-role="inner_grid" /><path d="M 55.80000000 105.95000000 L 55.80000000 5.65000000" fill="none" stroke="rgb(128,128,128)" stroke-width="0.3" data-role="inner_grid" /><path d="M 5.65000000 55.80000000 L 105.95000000 55.80000000" fill="none" stroke="rgb(128,128,128)" stroke-width="0.3" data-role="inner_grid" /><path d="M 68.33750000 105.95000000 L 68.33750000 5.65000000" fill="none" stroke="rgb(128,128,128)" stroke-width="0.3" data-role="inner_grid" /><path d="M 5.65000000 43.26250000 L 105.95000000 43.26250000" fill="none" stroke="rgb(128,128,128)" stroke-width="0.3" data-role="inner_grid" /><path d="M 80.87500000 105.95000000 L 80.87500000 5.65000000" fill="none" stroke="rgb(128,128,128)" stroke-width="0.3" data-role="inner_grid" /><path d="M 5.65000000 30.72500000 L 105.95000000 30.72500000" fill="none" stroke="rgb(128,128,128)" stroke-width="0.3" data-role="inner_grid" /><path d="M 93.41250000 105.95000000 L 93.41250000 5.65000000" fill="none" stroke="rgb(128,128,128)" stroke-width="0.3" data-role="inner_grid" /><path d="M 5.65000000 18.18750000 L 105.95000000 18.18750000" fill="none" stroke="rgb(128,128,128)" stroke-width="0.3" data-role="inner_grid" /><path d="M 105.95000000 105.95000000 L 105.95000000 5.65000000" fill="none" stroke="rgb(128,128,128)" stroke-width="0.3" data-role="inner_grid" /><path d="M 5.65000000 5.65000000 L 105.95000000 5.65000000" fill="none" stroke="rgb(128,128,128)" stroke-width="0.3" data-role="inner_grid" /><path d="M 5.65000000 105.95000000 L 105.95000000 105.95000000 L 105.95000000 5.65000000 L 5.65000000 5.65000000 Z" fill="none" stroke="rgb(0,0,0)" stroke-width="0.5" data-role="outer_grid" /><path d="M 10.77461591 18.15059069 L 10.75207021 18.87046123 L 10.68757840 19.49485054 L 10.58295024 20.06049348 L 10.44097123 20.56808234 L 10.26444323 21.01959588 L 10.05561209 21.41856093 L 9.81527911 21.76998160 L 9.54211970 22.07961970 L 9.23248160 22.35277911 L 8.88106093 22.59311209 L 8.48209588 22.80194323 L 8.03058234 22.97847123 L 7.52299348 23.12045024 L 6.95735054 23.22507840 L 6.33296123 23.28957021 L 5.61309069 23.31211591" fill="none" stroke="rgb(0,0,0)" stroke-width="0.6" data-role="track_rails" /><path d="M 13.06288409 18.22440931 L 13.03645722 19.02275370 L 12.95402589 19.81862875 L 12.81377487 20.57529958 L 12.61293502 21.29207391 L 12.34868813 21.96697843 L 12.01880470 22.59647541 L 11.62246707 23.17557163 L 11.16100530 23.69850530 L 10.63807163 24.15996707 L 10.05897541 24.55630470 L 9.42947843 24.88618813 L 8.75457391 25.15043502 L 8.03779958 25.35127487 L 7.28112875 25.49152589 L 6.48525370 25.57395722 L 5.68690931 25.60038409" fill="none" stroke="rgb(0,0,0)" stroke-width="0.6" data-role="track_rails" /><path d="M 10.04002198 19.40234014 L 13.60158231 19.91113370" fill="none" stroke="rgb(0,0,0)" stroke-width="0.4" data-role="sleepers" /><path d="M 9.66894468 20.74891125 L 12.94418667 22.23765761" fill="none" stroke="rgb(0,0,0)" stroke-width="0.4" data-role="sleepers" /><path d="M 9.07957861 21.61707861 L 11.62354639 24.16104639" fill="none" stroke="rgb(0,0,0)" stroke-width="0.4" data-role="sleepers" /><path d="M 8.21141125 22.20644468 L 9.70015761 25.48168667" fill="none" stroke="rgb(0,0,0)" stroke-width="0.4" data-role="sleepers" /><path d="M 18.15059069 10.77461591 L 17.35224630 10.80104278 L 16.55637125 10.88347411 L 15.79970042 11.02372513 L 15.08292609 11.22456498 L 14.40802157 11.48881187 L 13.77852459 11.81869530 L 13.19942837 12.21503293 L 12.67649470 12.67649470 L 12.21503293 13.19942837 L 11.81869530 13.77852459 L 11.48881187 14.40802157 L 11.22456498 15.08292609 L 11.02372513 15.79970042 L 10.88347411 16.55637125 L 10.80104278 17.35224630 L 10.77461591 18.15059069" fill="none" stroke="rgb(0,0,0)" stroke-width="0.6" data-role="track_rails" /><path d="M 18.22440931 13.06288409 L 17.50453877 13.08542979 L 16.88014946 13.14992160 L 16.31450652 13.25454976 L 15.80691766 13.39652877 L 15.35540412 13.57305677 L 14.95643907 13.78188791 L 14.60501840 14.02222089 L 14.29538030 14.29538030 L 14.02222089 14.60501840 L 13.78188791 14.95643907 L 13.57305677 15.35540412 L 13.39652877 15.80691766 L 13.25454976 16.31450652 L 13.14992160 16.88014946 L 13.08542979 17.50453877 L 13.06288409 18.22440931" fill="none" stroke="rgb(0,0,0)" stroke-width="0.6" data-role="track_rails" /><path d="M 16.46386630 10.23591769 L 16.97265986 13.79747802" fill="none" stroke="rgb(0,0,0)" stroke-width="0.4" data-role="sleepers" /><path d="M 14.13734239 10.89331333 L 15.62608875 14.16855532" fill="none" stroke="rgb(0,0,0)" stroke-width="0.4" data-role="sleepers" /><path d="M 12.21395361 12.21395361 L 14.75792139 14.75792139" fill="none" stroke="rgb(0,0,0)" stroke-width="0.4" data-role="sleepers" /><path d="M 10.89331333 14.13734239 L 14.16855532 15.62608875" fill="none" stroke="rgb(0,0,0)" stroke-width="0.4" data-role="sleepers" /><path d="M 10.23591769 16.46386630 L 13.79747802 16.97265986" fill="none" stroke="rgb(0,0,0)" stroke-width="0.4" data-role="sleepers" /><path d="M 25.60038409 18.15059069 L 25.57395722 17.35224630 L 25.49152589 16.55637125 L 25.35127487 15.79970042 L 25.15043502 15.08292609 L 24.88618813 14.40802157 L 24.55630470 13.77852459 L 24.15996707 13.19942837 L 23.69850530 12.67649470 L 23.17557163 12.21503293 L 22.59647541 11.81869530 L 21.96697843 11.48881187 L 21.29207391 11.22456498 L 20.57529958 11.02372513 L 19.81862875 10.88347411 L 19.02275370 10.80104278 L 18.22440931 10.77461591" fill="none" stroke="rgb(0,0,0)" stroke-width="0.6" data-role="track_rails" /><path d="M 23.31211591 18.22440931 L 23.28957021 17.50453877 L 23.22507840 16.88014946 L 23.12045024 16.31450652 L 22.97847123 15.80691766 L 22.80194323 15.35540412 L 22.59311209 14.95643907 L 22.35277911 14.60501840 L 22.07961970 14.29538030 L 21.76998160 14.02222089 L 21.41856093 13.78188791 L 21.01959588 13.57305677 L 20.56808234 13.39652877 L 20.06049348 13.25454976 L 19.49485054 13.14992160 L 18.87046123 13.08542979 L 18.15059069 13.06288409" fill="none" stroke="rgb(0,0,0)" stroke-width="0.6" data-role="track_rails" /><path d="M 26.13908231 16.46386630 L 22.57752198 16.97265986" fill="none" stroke="rgb(0,0,0)" stroke-width="0.4" data-role="sleepers" /><path d="M 25.48168667 14.13734239 L 22.20644468 15.62608875" fill="none" stroke="rgb(0,0,0)" stroke-width="0.4" data-role="sleepers" /><path d="M 24.16104639 12.21395361 L 21.61707861 14.75792139" fill="none" stroke="rgb(0,0,0)" stroke-width="0.4" data-role="sleepers" /><path d="M 22.23765761 10.89331333 L 20.74891125 14.16855532" fill="none" stroke="rgb(0,0,0)" stroke-width="0.4" data-role="sleepers" /><path d="M 19.91113370 10.23591769 L 19.40234014 13.79747802" fill="none" stroke="rgb(0,0,0)" stroke-width="0.4" data-role="sleepers" /><path d="M 23.31211591 18.22440931 L 23.33854278 19.02275370 L 23.42097411 19.81862875 L 23.56122513 20.57529958 L 23.76206498 21.29207391 L 24.02631187 21.96697843 L 24.35619530 22.59647541 L 24.75253293 23.17557163 L 25.21399470 23.69850530 L 25.73692837 24.15996707 L 26.31602459 24.55630470 L 26.94552157 24.88618813 L 27.62042609 25.15043502 L 28.33720042 25.35127487 L 29.09387125 25.49152589 L 29.88974630 25.57395722 L 30.68809069 25.60038409" fill="none" stroke="rgb(0,0,0)" stroke-width="0.6" data-role="track_rails" /><path d="M 25.60038409 18.15059069 L 25.62292979 18.87046123 L 25.68742160 19.49485054 L 25.79204976 20.06049348 L 25.93402877 20.56808234 L 26.11055677 21.01959588 L 26.31938791 21.41856093 L 26.55972089 21.76998160 L 26.83288030 22.07961970 L 27.14251840 22.35277911 L 27.49393907 22.59311209 L 27.89290413 22.80194323 L 28.34441766 22.97847123 L 28.85200652 23.12045024 L 29.41764946 23.22507840 L 30.04203877 23.28957021 L 30.76190931 23.31211591" fill="none" stroke="rgb(0,0,0)" stroke-width="0.6" data-role="track_rails" /><path d="M 22.77341769 19.91113370 L 26.33497802 19.40234014" fill="none" stroke="rgb(0,0,0)" stroke-width="0.4" data-role="sleepers" /><path d="M 23.43081333 22.23765761 L 26.70605532 20.74891125" fill="none" stroke="rgb(0,0,0)" stroke-width="0.4" data-role="sleepers" /><path d="M 24.75145361 24.16104639 L 27.29542139 21.61707861" fill="none" stroke="rgb(0,0,0)" stroke-width="0.4" data-role="sleepers" /><path d="M 26.67484239 25.48168667 L 28.16358875 22.20644468" fill="none" stroke="rgb(0,0,0)" stroke-width="0.4" data-role="sleepers" /><path d="M 29.00136630 26.13908231 L 29.51015986 22.57752198" fill="none" stroke="rgb(0,0,0)" stroke-width="0.4" data-role="sleepers" /><path d="M 35.84961591 18.15059069 L 35.82707021 18.87046123 L 35.76257840 19.49485054 L 35.65795024 20.06049348 L 35.51597123 20.56808234 L 35.33944323 21.01959588 L 35.13061209 21.41856093 L 34.89027911 21.76998160 L 34.61711970 22.07961970 L 34.30748160 22.35277911 L 33.95606093 22.59311209 L 33.55709588 22.80194323 L 33.10558234 22.97847123 L 32.59799348 23.12045024 L 32.03235054 23.22507840 L 31.40796123 23.28957021 L 30.68809069 23.31211591" fill="none" stroke="rgb(0,0,0)" stroke-width="0.6" data-role="track_rails" /><path d="M 38.13788409 18.22440931 L 38.11145722 19.02275370 L 38.02902589 19.81862875 L 37.88877487 20.57529958 L 37.68793502 21.29207391 L 37.42368813 21.96697843 L 37.09380470 22.59647541 L 36.69746707 23.17557163 L 36.23600530 23.69850530 L 35.71307163 24.15996707 L 35.13397541 24.55630470 L 34.50447843 24.88618813 L 33.82957391 25.15043502 L 33.11279958 25.35127487 L 32.35612875 25.49152589 L 31.56025370 25.57395722 L 30.76190931 25.60038409" fill="none" stroke="rgb(0,0,0)" stroke-width="0.6" data-role="track_rails" /><path d="M 35.11502198 19.40234014 L 38.67658231 19.91113370" fill="none" stroke="rgb(0,0,0)" stroke-width="0.4" data-role="sleepers" /><path d="M 34.74394468 20.74891125 L 38.01918667 22.23765761" fill="none" stroke="rgb(0,0,0)" stroke-width="0.4" data-role="sleepers" /><path d="M 34.15457861 21.61707861 L 36.69854639 24.16104639" fill="none" stroke="rgb(0,0,0)" stroke-width="0.4" data-role="sleepers" /><path d="M 33.28641125 22.20644468 L 34.77515761 25.48168667" fill="none" stroke="rgb(0,0,0)" stroke-width="0.4" data-role="sleepers" /><path d="M 31.93984014 22.57752198 L 32.44863370 26.13908231" fill="none" stroke="rgb(0,0,0)" stroke-width="0.4" data-role="sleepers" /><path d="M 43.22559069 10.77461591 L 42.42724630 10.80104278 L 41.63137125 10.88347411 L 40.87470042 11.02372513 L 40.15792609 11.22456498 L 39.48302157 11.48881187 L 38.85352459 11.81869530 L 38.27442837 12.21503293 L 37.75149470 12.67649470 L 37.29003293 13.19942837 L 36.89369530 13.77852459 L 36.56381187 14.40802157 L 36.29956498 15.08292609 L 36.09872513 15.79970042 L 35.95847411 16.55637125 L 35.87604278 17.35224630 L 35.84961591 18.15059069" fill="none" stroke="rgb(0,0,0)" stroke-width="0.6" data-role="track_rails" /><path d="M 43.29940931 13.06288409 L 42.57953877 13.08542979 L 41.95514946 13.14992160 L 41.38950652 13.25454976 L 40.88191766 13.39652877 L 40.43040412 13.57305677 L 40.03143907 13.78188791 L 39.68001840 14.02222089 L 39.37038030 14.29538030 L 39.09722089 14.60501840 L 38.85688791 14.95643907 L 38.64805677 15.35540412 L 38.47152877 15.80691766 L 38.32954976 16.31450652 L 38.22492160 16.88014946 L 38.16042979 17.50453877 L 38.13788409 18.22440931" fill="none" stroke="rgb(0,0,0)" stroke-width="0.6" data-role="track_rails" /><path d="M 41.53886630 10.23591769 L 42.04765986 13.79747802" fill="none" stroke="rgb(0,0,0)" stroke-width="0.4" data-role="sleepers" /><path d="M 39.21234239 10.89331333 L 40.70108875 14.16855532" fill="none" stroke="rgb(0,0,0)" stroke-width="0.4" data-role="sleepers" /><path d="M 37.28895361 12.21395361 L 39.83292139 14.75792139" fill="none" stroke="rgb(0,0,0)" stroke-width="0.4" data-role="sleepers" /><path d="M 35.96831333 14.13734239 L 39.24355532 15.62608875" fill="none" stroke="rgb(0,0,0)" stroke-width="0.4" data-role="sleepers" /><path d="M 35.31091769 16.46386630 L 38.87247802 16.97265986" fill="none" stroke="rgb(0,0,0)" stroke-width="0.4" data-role="sleepers" /><path d="M 50.67538409 18.15059069 L 50.64895722 17.35224630 L 50.56652589 16.55637125 L 50.42627487 15.79970042 L 50.22543502 15.08292609 L 49.96118813 14.40802157 L 49.63130470 13.77852459 L 49.23496707 13.19942837 L 48.77350530 12.67649470 L 48.25057163 12.21503293 L 47.67147541 11.81869530 L 47.04197843 11.48881187 L 46.36707391 11.22456498 L 45.65029958 11.02372513 L 44.89362875 10.88347411 L 44.09775370 10.80104278 L 43.29940931 10.77461591" fill="none" stroke="rgb(0,0,0)" stroke-width="0.6" data-role="track_rails" /><path d="M 48.38711591 18.22440931 L 48.36457021 17.50453877 L 48.30007840 16.88014946 L 48.19545024 16.31450652 L 48.05347123 15.80691766 L 47.87694323 15.35540412 L 47.66811209 14.95643907 L 47.42777911 14.60501840 L 47.15461970 14.29538030 L 46.84498160 14.02222089 L 46.49356093 13.78188791 L 46.09459587 13.57305677 L 45.64308234 13.39652877 L 45.13549348 13.25454976 L 44.56985054 13.14992160 L 43.94546123 13.08542979 L 43.22559069 13.06288409" fill="none" stroke="rgb(0,0,0)" stroke-width="0.6" data-role="track_rails" /><path d="M 51.21408231 16.46386630 L 47.65252198 16.97265986" fill="none" stroke="rgb(0,0,0)" stroke-width="0.4" data-role="sleepers" /><path d="M 50.55668667 14.13734239 L 47.28144468 15.62608875" fill="none" stroke="rgb(0,0,0)" stroke-width="0.4" data-role="sleepers" /><path d="M 49.23604639 12.21395361 L 46.69207861 14.75792139" fill="none" stroke="rgb(0,0,0)" stroke-width="0.4" data-role="sleepers" /><path d="M 47.31265761 10.89331333 L 45.82391125 14.16855532" fill="none" stroke="rgb(0,0,0)" stroke-width="0.4" data-role="sleepers" /><path d="M 44.98613370 10.23591769 L 44.47734014 13.79747802" fill="none" stroke="rgb(0,0,0)" stroke-width="0.4" data-role="sleepers" /><path d="M 48.38711591 18.22440931 L 48.41354278 19.02275370 L 48.49597411 19.81862875 L 48.63622513 20.57529958 L 48.83706498 21.29207391 L 49.10131187 21.96697843 L 49.43119530 22.59647541 L 49.82753293 23.17557163 L 50.28899470 23.69850530 L 50.81192837 24.15996707 L 51.39102459 24.55630470 L 52.02052157 24.88618813 L 52.69542609 25.15043502 L 53.41220042 25.35127487 L 54.16887125 25.49152589 L 54.96474630 25.57395722 L 55.76309069 25.60038409" fill="none" stroke="rgb(0,0,0)" stroke-width="0.6" data-role="track_rails" /><path d="M 50.67538409 18.15059069 L 50.69792979 18.87046123 L 50.76242160 19.49485054 L 50.86704976 20.06049348 L 51.00902877 20.56808234 L 51.18555677 21.01959588 L 51.39438791 21.41856093 L 51.63472089 21.76998160 L 51.90788030 22.07961970 L 52.21751840 22.35277911 L 52.56893907 22.59311209 L 52.96790412 22.80194323 L 53.41941766 22.97847123 L 53.92700652 23.12045024 L 54.49264946 23.22507840 L 55.11703877 23.28957021 L 55.83690931 23.31211591" fill="none" stroke="rgb(0,0,0)" stroke-width="0.6" data-role="track_rails" /><path d="M 47.84841769 19.91113370 L 51.40997802 19.40234014" fill="none" stroke="rgb(0,0,0)" stroke-width="0.4" data-role="sleepers" /><path d="M 48.50581333 22.23765761 L 51.78105532 20.74891125" fill="none" stroke="rgb(0,0,0)" stroke-width="0.4" data-role="sleepers" /><path d="M 49.82645361 24.16104639 L 52.37042139 21.61707861" fill="none" stroke="rgb(0,0,0)" stroke-width="0.4" data-role="sleepers" /><path d="M 51.74984239 25.48168667 L 53.23858875 22.20644468" fill="none" stroke="rgb(0,0,0)" stroke-width="0.4" data-role="sleepers" /><path d="M 54.07636630 26.13908231 L 54.58515986 22.57752198" fill="none" stroke="rgb(0,0,0)" stroke-width="0.4" data-role="sleepers" /><path d="M 68.33750000 23.31152174 L 67.88973136 23.31152174 L 67.44196273 23.31152174 L 66.99419409 23.31152174 L 66.54643091 23.31152174 L 66.09866227 23.31152174 L 65.65089364 23.31152174 L 65.20312500 23.31152174 L 64.75535636 23.31152174 L 64.30758773 23.31152174 L 63.85981909 23.31152174 L 63.41205591 23.31152174 L 62.96428727 23.31152174 L 62.51651864 23.31152174 L 62.06875000 23.31152174 L 61.62098136 23.31152174 L 61.17321273 23.31152174 L 60.72544409 23.31152174 L 60.27768091 23.31152174 L 59.82991227 23.31152174 L 59.38214364 23.31152174 L 58.93437500 23.31152174 L 58.48660636 23.31152174 L 58.03883773 23.31152174 L 57.59106909 23.31152174 L 57.14330591 23.31152174 L 56.69553727 23.31152174 L 56.24776864 23.31152174 L 55.80000000 23.31152174" fill="none" stroke="rgb(0,0,0)" stroke-width="0.6" data-role="track_rails" /><path d="M 68.33750000 25.60097826 L 67.88973136 25.60097826 L 67.44196273 25.60097826 L 66.99419409 25.60097826 L 66.54643091 25.60097826 L 66.09866227 25.60097826 L 65.65089364 25.60097826 L 65.20312500 25.60097826 L 64.75535636 25.60097826 L 64.30758773 25.60097826 L 63.85981909 25.60097826 L 63.41205591 25.60097826 L 62.96428727 25.60097826 L 62.51651864 25.60097826 L 62.06875000 25.60097826 L 61.62098136 25.60097826 L 61.17321273 25.60097826 L 60.72544409 25.60097826 L 60.27768091 25.60097826 L 59.82991227 25.60097826 L 59.38214364 25.60097826 L 58.93437500 25.60097826 L 58.48660636 25.60097826 L 58.03883773 25.60097826 L 57.59106909 25.60097826 L 57.14330591 25.60097826 L 56.69553727 25.60097826 L 56.24776864 25.60097826 L 55.80000000 25.60097826" fill="none" stroke="rgb(0,0,0)" stroke-width="0.6" data-role="track_rails" /><path d="M 67.44196273 22.65739130 L 67.44196273 26.25510870" fill="none" stroke="rgb(0,0,0)" stroke-width="0.4" data-role="sleepers" /><path d="M 65.65089364 22.65739130 L 65.65089364 26.25510870" fill="none" stroke="rgb(0,0,0)" stroke-width="0.4" data-role="sleepers" /><path d="M 63.85981909 22.65739130 L 63.85981909 26.25510870" fill="none" stroke="rgb(0,0,0)" stroke-width="0.4" data-role="sleepers" /><path d="M 62.06875000 22.65739130 L 62.06875000 26.25510870" fill="none" stroke="rgb(0,0,0)" stroke-width="0.4" data-role="sleepers" /><path d="M 60.27768091 22.65739130 L 60.27768091 26.25510870" fill="none" stroke="rgb(0,0,0)" stroke-width="0.4" data-role="sleepers" /><path d="M 58.48660636 22.65739130 L 58.48660636 26.25510870" fill="none" stroke="rgb(0,0,0)" stroke-width="0.4" data-role="sleepers" /><path d="M 56.69553727 22.65739130 L 56.69553727 26.25510870" fill="none" stroke="rgb(0,0,0)" stroke-width="0.4" data-role="sleepers" /><path d="M 73.46211591 18.15059069 L 73.43957021 18.87046123 L 73.37507840 19.49485054 L 73.27045024 20.06049348 L 73.12847123 20.56808234 L 72.95194323 21.01959588 L 72.74311209 21.41856093 L 72.50277911 21.76998160 L 72.22961970 22.07961970 L 71.91998160 22.35277911 L 71.56856093 22.59311209 L 71.16959587 22.80194323 L 70.71808234 22.97847123 L 70.21049348 23.12045024 L 69.64485054 23.22507840 L 69.02046123 23.28957021 L 68.30059069 23.31211591" fill="none" stroke="rgb(0,0,0)" stroke-width="0.6" data-role="track_rails" /><path d="M 75.75038409 18.22440931 L 75.72395722 19.02275370 L 75.64152589 19.81862875 L 75.50127487 20.57529958 L 75.30043502 21.29207391 L 75.03618813 21.96697843 L 74.70630470 22.59647541 L 74.30996707 23.17557163 L 73.84850530 23.69850530 L 73.32557163 24.15996707 L 72.74647541 24.55630470 L 72.11697843 24.88618813 L 71.44207391 25.15043502 L 70.72529958 25.35127487 L 69.96862875 25.49152589 L 69.17275370 25.57395722 L 68.37440931 25.60038409" fill="none" stroke="rgb(0,0,0)" stroke-width="0.6" data-role="track_rails" /><path d="M 72.72752198 19.40234014 L 76.28908231 19.91113370" fill="none" stroke="rgb(0,0,0)" stroke-width="0.4" data-role="sleepers" /><path d="M 72.35644468 20.74891125 L 75.63168667 22.23765761" fill="none" stroke="rgb(0,0,0)" stroke-width="0.4" data-role="sleepers" /><path d="M 71.76707861 21.61707861 L 74.31104639 24.16104639" fill="none" stroke="rgb(0,0,0)" stroke-width="0.4" data-role="sleepers" /><path d="M 70.89891125 22.20644468 L 72.38765761 25.48168667" fill="none" stroke="rgb(0,0,0)" stroke-width="0.4" data-role="sleepers" /><path d="M 69.55234014 22.57752198 L 70.06113370 26.13908231" fill="none" stroke="rgb(0,0,0)" stroke-width="0.4" data-role="sleepers" /><path d="M 80.83809069 10.77461591 L 80.03974630 10.80104278 L 79.24387125 10.88347411 L 78.48720042 11.02372513 L 77.77042609 11.22456498 L 77.09552157 11.48881187 L 76.46602459 11.81869530 L 75.88692837 12.21503293 L 75.36399470 12.67649470 L 74.90253293 13.19942837 L 74.50619530 13.77852459 L 74.17631187 14.40802157 L 73.91206498 15.08292609 L 73.71122513 15.79970042 L 73.57097411 16.55637125 L 73.48854278 17.35224630 L 73.46211591 18.15059069" fill="none" stroke="rgb(0,0,0)" stroke-width="0.6" data-role="track_rails" /><path d="M 80.91190931 13.06288409 L 80.19203877 13.08542979 L 79.56764946 13.14992160 L 79.00200652 13.25454976 L 78.49441766 13.39652877 L 78.04290413 13.57305677 L 77.64393907 13.78188791 L 77.29251840 14.02222089 L 76.98288030 14.29538030 L 76.70972089 14.60501840 L 76.46938791 14.95643907 L 76.26055677 15.35540412 L 76.08402877 15.80691766 L 75.94204976 16.31450652 L 75.83742160 16.88014946 L 75.77292979 17.50453877 L 75.75038409 18.22440931" fill="none" stroke="rgb(0,0,0)" stroke-width="0.6" data-role="track_rails" /><path d="M 79.15136630 10.23591769 L 79.66015986 13.79747802" fill="none" stroke="rgb(0,0,0)" stroke-width="0.4" data-role="sleepers" /><path d="M 76.82484239 10.89331333 L 78.31358875 14.16855532" fill="none" stroke="rgb(0,0,0)" stroke-width="0.4" data-role="sleepers" /><path d="M 74.90145361 12.21395361 L 77.44542139 14.75792139" fill="none" stroke="rgb(0,0,0)" stroke-width="0.4" data-role="sleepers" /><path d="M 73.58081333 14.13734239 L 76.85605532 15.62608875" fill="none" stroke="rgb(0,0,0)" stroke-width="0.4" data-role="sleepers" /><path d="M 72.92341769 16.46386630 L 76.48497802 16.97265986" fill="none" stroke="rgb(0,0,0)" stroke-width="0.4" data-role="sleepers" /><path d="M 88.28788409 18.15059069 L 88.26145722 17.35224630 L 88.17902589 16.55637125 L 88.03877487 15.79970042 L 87.83793502 15.08292609 L 87.57368813 14.40802157 L 87.24380470 13.77852459 L 86.84746707 13.19942837 L 86.38600530 12.67649470 L 85.86307163 12.21503293 L 85.28397541 11.81869530 L 84.65447843 11.48881187 L 83.97957391 11.22456498 L 83.26279958 11.02372513 L 82.50612875 10.88347411 L 81.71025370 10.80104278 L 80.91190931 10.77461591" fill="none" stroke="rgb(0,0,0)" stroke-width="0.6" data-role="track_rails" /><path d="M 85.99961591 18.22440931 L 85.97707021 17.50453877 L 85.91257840 16.88014946 L 85.80795024 16.31450652 L 85.66597123 15.80691766 L 85.48944323 15.35540412 L 85.28061209 14.95643907 L 85.04027911 14.60501840 L 84.76711970 14.29538030 L 84.45748160 14.02222089 L 84.10606093 13.78188791 L 83.70709588 13.57305677 L 83.25558234 13.39652877 L 82.74799348 13.25454976 L 82.18235054 13.14992160 L 81.55796123 13.08542979 L 80.83809069 13.06288409" fill="none" stroke="rgb(0,0,0)" stroke-width="0.6" data-role="track_rails" /><path d="M 88.82658231 16.46386630 L 85.26502198 16.97265986" fill="none" stroke="rgb(0,0,0)" stroke-width="0.4" data-role="sleepers" /><path d="M 88.16918667 14.13734239 L 84.89394468 15.62608875" fill="none" stroke="rgb(0,0,0)" stroke-width="0.4" data-role="sleepers" /><path d="M 86.84854639 12.21395361 L 84.30457861 14.75792139" fill="none" stroke="rgb(0,0,0)" stroke-width="0.4" data-role="sleepers" /><path d="M 84.92515761 10.89331333 L 83.43641125 14.16855532" fill="none" stroke="rgb(0,0,0)" stroke-width="0.4" data-role="sleepers" /><path d="M 82.59863370 10.23591769 L 82.08984014 13.79747802" fill="none" stroke="rgb(0,0,0)" stroke-width="0.4" data-role="sleepers" /><path d="M 85.99902174 18.18750000 L 85.99902174 18.63526864 L 85.99902174 19.08303727 L 85.99902174 19.53080591 L 85.99902174 19.97856909 L 85.99902174 20.42633773 L 85.99902174 20.87410636 L 85.99902174 21.32187500 L 85.99902174 21.76964364 L 85.99902174 22.21741227 L 85.99902174 22.66518091 L 85.99902174 23.11294409 L 85.99902174 23.56071273 L 85.99902174 24.00848136 L 85.99902174 24.45625000 L 85.99902174 24.90401864 L 85.99902174 25.35178727 L 85.99902174 25.79955591 L 85.99902174 26.24731909 L 85.99902174 26.69508773 L 85.99902174 27.14285636 L 85.99902174 27.59062500 L 85.99902174 28.03839364 L 85.99902174 28.48616227 L 85.99902174 28.93393091 L 85.99902174 29.38169409 L 85.99902174 29.82946273 L 85.99902174 30.27723136 L 85.99902174 30.72500000" fill="none" stroke="rgb(0,0,0)" stroke-width="0.6" data-role="track_rails" /><path d="M 88.28847826 18.18750000 L 88.28847826 18.63526864 L 88.28847826 19.08303727 L 88.28847826 19.53080591 L 88.28847826 19.97856909 L 88.28847826 20.42633773 L 88.28847826 20.87410636 L 88.28847826 21.32187500 L 88.28847826 21.76964364 L 88.28847826 22.21741227 L 88.28847826 22.66518091 L 88.28847826 23.11294409 L 88.28847826 23.56071273 L 88.28847826 24.00848136 L 88.28847826 24.45625000 L 88.28847826 24.90401864 L 88.28847826 25.35178727 L 88.28847826 25.79955591 L 88.28847826 26.24731909 L 88.28847826 26.69508773 L 88.28847826 27.14285636 L 88.28847826 27.59062500 L 88.28847826 28.03839364 L 88.28847826 28.48616227 L 88.28847826 28.93393091 L 88.28847826 29.38169409 L 88.28847826 29.82946273 L 88.28847826 30.27723136 L 88.28847826 30.72500000" fill="none" stroke="rgb(0,0,0)" stroke-width="0.6" data-role="track_rails" /><path d="M 85.34489130 19.08303727 L 88.94260870 19.08303727" fill="none" stroke="rgb(0,0,0)" stroke-width="0.4" data-role="sleepers" /><path d="M 85.34489130 20.87410636 L 88.94260870 20.87410636" fill="none" stroke="rgb(0,0,0)" stroke-width="0.4" data-role="sleepers" /><path d="M 85.34489130 22.66518091 L 88.94260870 22.66518091" fill="none" stroke="rgb(0,0,0)" stroke-width="0.4" data-role="sleepers" /><path d="M 85.34489130 24.45625000 L 88.94260870 24.45625000" fill="none" stroke="rgb(0,0,0)" stroke-width="0.4" data-role="sleepers" /><path d="M 85.34489130 26.24731909 L 88.94260870 26.24731909" fill="none" stroke="rgb(0,0,0)" stroke-width="0.4" data-role="sleepers" /><path d="M 85.34489130 28.03839364 L 88.94260870 28.03839364" fill="none" stroke="rgb(0,0,0)" stroke-width="0.4" data-role="sleepers" /><path d="M 85.34489130 29.82946273 L 88.94260870 29.82946273" fill="none" stroke="rgb(0,0,0)" stroke-width="0.4" data-role="sleepers" /><path d="M 85.99961591 30.68809069 L 85.97707021 31.40796123 L 85.91257840 32.03235054 L 85.80795024 32.59799348 L 85.66597123 33.10558234 L 85.48944323 33.55709588 L 85.28061209 33.95606093 L 85.04027911 34.30748160 L 84.76711970 34.61711970 L 84.45748160 34.89027911 L 84.10606093 35.13061209 L 83.70709588 35.33944323 L 83.25558234 35.51597123 L 82.74799348 35.65795024 L 82.18235054 35.76257840 L 81.55796123 35.82707021 L 80.83809069 35.84961591" fill="none" stroke="rgb(0,0,0)" stroke-width="0.6" data-role="track_rails" /><path d="M 88.28788409 30.76190931 L 88.26145722 31.56025370 L 88.17902589 32.35612875 L 88.03877487 33.11279958 L 87.83793502 33.82957391 L 87.57368813 34.50447843 L 87.24380470 35.13397541 L 86.84746707 35.71307163 L 86.38600530 36.23600530 L 85.86307163 36.69746707 L 85.28397541 37.09380470 L 84.65447843 37.42368813 L 83.97957391 37.68793502 L 83.26279958 37.88877487 L 82.50612875 38.02902589 L 81.71025370 38.11145722 L 80.91190931 38.13788409" fill="none" stroke="rgb(0,0,0)" stroke-width="0.6" data-role="track_rails" /><path d="M 85.26502198 31.93984014 L 88.82658231 32.44863370" fill="none" stroke="rgb(0,0,0)" stroke-width="0.4" data-role="sleepers" /><path d="M 84.89394468 33.28641125 L 88.16918667 34.77515761" fill="none" stroke="rgb(0,0,0)" stroke-width="0.4" data-role="sleepers" /><path d="M 84.30457861 34.15457861 L 86.84854639 36.69854639" fill="none" stroke="rgb(0,0,0)" stroke-width="0.4" data-role="sleepers" /><path d="M 83.43641125 34.74394468 L 84.92515761 38.01918667" fill="none" stroke="rgb(0,0,0)" stroke-width="0.4" data-role="sleepers" /><path d="M 82.08984014 35.11502198 L 82.59863370 38.67658231" fill="none" stroke="rgb(0,0,0)" stroke-width="0.4" data-role="sleepers" /><path d="M 80.83809069 35.84961591 L 80.03974630 35.87604278 L 79.24387125 35.95847411 L 78.48720042 36.09872513 L 77.77042609 36.29956498 L 77.09552157 36.56381187 L 76.46602459 36.89369530 L 75.88692837 37.29003293 L 75.36399470 37.75149470 L 74.90253293 38.27442837 L 74.50619530 38.85352459 L 74.17631187 39.48302157 L 73.91206498 40.15792609 L 73.71122513 40.87470042 L 73.57097411 41.63137125 L 73.48854278 42.42724630 L 73.46211591 43.22559069" fill="none" stroke="rgb(0,0,0)" stroke-width="0.6" data-role="track_rails" /><path d="M 80.91190931 38.13788409 L 80.19203877 38.16042979 L 79.56764946 38.22492160 L 79.00200652 38.32954976 L 78.49441766 38.47152877 L 78.04290413 38.64805677 L 77.64393907 38.85688791 L 77.29251840 39.09722089 L 76.98288030 39.37038030 L 76.70972089 39.68001840 L 76.46938791 40.03143907 L 76.26055677 40.43040412 L 76.08402877 40.88191766 L 75.94204976 41.38950652 L 75.83742160 41.95514946 L 75.77292979 42.57953877 L 75.75038409 43.29940931" fill="none" stroke="rgb(0,0,0)" stroke-width="0.6" data-role="track_rails" /><path d="M 79.15136630 35.31091769 L 79.66015986 38.87247802" fill="none" stroke="rgb(0,0,0)" stroke-width="0.4" data-role="sleepers" /><path d="M 76.82484239 35.96831333 L 78.31358875 39.24355532" fill="none" stroke="rgb(0,0,0)" stroke-width="0.4" data-role="sleepers" /><path d="M 74.90145361 37.28895361 L 77.44542139 39.83292139" fill="none" stroke="rgb(0,0,0)" stroke-width="0.4" data-role="sleepers" /><path d="M 73.58081333 39.21234239 L 76.85605532 40.70108875" fill="none" stroke="rgb(0,0,0)" stroke-width="0.4" data-role="sleepers" /><path d="M 72.92341769 41.53886630 L 76.48497802 42.04765986" fill="none" stroke="rgb(0,0,0)" stroke-width="0.4" data-role="sleepers" /><path d="M 73.46211591 43.29940931 L 73.48854278 44.09775370 L 73.57097411 44.89362875 L 73.71122513 45.65029958 L 73.91206498 46.36707391 L 74.17631187 47.04197843 L 74.50619530 47.67147541 L 74.90253293 48.25057163 L 75.36399470 48.77350530 L 75.88692837 49.23496707 L 76.46602459 49.63130470 L 77.09552157 49.96118813 L 77.77042609 50.22543502 L 78.48720042 50.42627487 L 79.24387125 50.56652589 L 80.03974630 50.64895722 L 80.83809069 50.67538409" fill="none" stroke="rgb(0,0,0)" stroke-width="0.6" data-role="track_rails" /><path d="M 75.75038409 43.22559069 L 75.77292979 43.94546123 L 75.83742160 44.56985054 L 75.94204976 45.13549348 L 76.08402877 45.64308234 L 76.26055677 46.09459587 L 76.46938791 46.49356093 L 76.70972089 46.84498160 L 76.98288030 47.15461970 L 77.29251840 47.42777911 L 77.64393907 47.66811209 L 78.04290413 47.87694323 L 78.49441766 48.05347123 L 79.00200652 48.19545024 L 79.56764946 48.30007840 L 80.19203877 48.36457021 L 80.91190931 48.38711591" fill="none" stroke="rgb(0,0,0)" stroke-width="0.6" data-role="track_rails" /><path d="M 72.92341769 44.98613370 L 76.48497802 44.47734014" fill="none" stroke="rgb(0,0,0)" stroke-width="0.4" data-role="sleepers" /><path d="M 73.58081333 47.31265761 L 76.85605532 45.82391125" fill="none" stroke="rgb(0,0,0)" stroke-width="0.4" data-role="sleepers" /><path d="M 74.90145361 49.23604639 L 77.44542139 46.69207861" fill="none" stroke="rgb(0,0,0)" stroke-width="0.4" data-role="sleepers" /><path d="M 76.82484239 50.55668667 L 78.31358875 47.28144468" fill="none" stroke="rgb(0,0,0)" stroke-width="0.4" data-role="sleepers" /><path d="M 79.15136630 51.21408231 L 79.66015986 47.65252198" fill="none" stroke="rgb(0,0,0)" stroke-width="0.4" data-role="sleepers" /><path d="M 88.28788409 55.76309069 L 88.26145722 54.96474630 L 88.17902589 54.16887125 L 88.03877487 53.41220042 L 87.83793502 52.69542609 L 87.57368813 52.02052157 L 87.24380470 51.39102459 L 86.84746707 50.81192837 L 86.38600530 50.28899470 L 85.86307163 49.82753293 L 85.28397541 49.43119530 L 84.65447843 49.10131187 L 83.97957391 48.83706498 L 83.26279958 48.63622513 L 82.50612875 48.49597411 L 81.71025370 48.41354278 L 80.91190931 48.38711591" fill="none" stroke="rgb(0,0,0)" stroke-width="0.6" data-role="track_rails" /><path d="M 85.99961591 55.83690931 L 85.97707021 55.11703877 L 85.91257840 54.49264946 L 85.80795024 53.92700652 L 85.66597123 53.41941766 L 85.48944323 52.96790412 L 85.28061209 52.56893907 L 85.04027911 52.21751840 L 84.76711970 51.90788030 L 84.45748160 51.63472089 L 84.10606093 51.39438791 L 83.70709588 51.18555677 L 83.25558234 51.00902877 L 82.74799348 50.86704976 L 82.18235054 50.76242160 L 81.55796123 50.69792979 L 80.83809069 50.67538409" fill="none" stroke="rgb(0,0,0)" stroke-width="0.6" data-role="track_rails" /><path d="M 88.82658231 54.07636630 L 85.26502198 54.58515986" fill="none" stroke="rgb(0,0,0)" stroke-width="0.4" data-role="sleepers" /><path d="M 88.16918667 51.74984239 L 84.89394468 53.23858875" fill="none" stroke="rgb(0,0,0)" stroke-width="0.4" data-role="sleepers" /><path d="M 86.84854639 49.82645361 L 84.30457861 52.37042139" fill="none" stroke="rgb(0,0,0)" stroke-width="0.4" data-role="sleepers" /><path d="M 84.92515761 48.50581333 L 83.43641125 51.78105532" fill="none" stroke="rgb(0,0,0)" stroke-width="0.4" data-role="sleepers" /><path d="M 82.59863370 47.84841769 L 82.08984014 51.40997802" fill="none" stroke="rgb(0,0,0)" stroke-width="0.4" data-role="sleepers" /><path d="M 85.99961591 55.76309069 L 85.97707021 56.48296123 L 85.91257840 57.10735054 L 85.80795024 57.67299348 L 85.66597123 58.18058234 L 85.48944323 58.63209587 L 85.28061209 59.03106093 L 85.04027911 59.38248160 L 84.76711970 59.69211970 L 84.45748160 59.96527911 L 84.10606093 60.20561209 L 83.70709588 60.41444323 L 83.25558234 60.59097123 L 82.74799348 60.73295024 L 82.18235054 60.83757840 L 81.55796123 60.90207021 L 80.83809069 60.92461591" fill="none" stroke="rgb(0,0,0)" stroke-width="0.6" data-role="track_rails" /><path d="M 88.28788409 55.83690931 L 88.26145722 56.63525370 L 88.17902589 57.43112875 L 88.03877487 58.18779958 L 87.83793502 58.90457391 L 87.57368813 59.57947843 L 87.24380470 60.20897541 L 86.84746707 60.78807163 L 86.38600530 61.31100530 L 85.86307163 61.77246707 L 85.28397541 62.16880470 L 84.65447843 62.49868813 L 83.97957391 62.76293502 L 83.26279958 62.96377487 L 82.50612875 63.10402589 L 81.71025370 63.18645722 L 80.91190931 63.21288409" fill="none" stroke="rgb(0,0,0)" stroke-width="0.6" data-role="track_rails" /><path d="M 85.26502198 57.01484014 L 88.82658231 57.52363370" fill="none" stroke="rgb(0,0,0)" stroke-width="0.4" data-role="sleepers" /><path d="M 84.89394468 58.36141125 L 88.16918667 59.85015761" fill="none" stroke="rgb(0,0,0)" stroke-width="0.4" data-role="sleepers" /><path d="M 84.30457861 59.22957861 L 86.84854639 61.77354639" fill="none" stroke="rgb(0,0,0)" stroke-width="0.4" data-role="sleepers" /><path d="M 83.43641125 59.81894468 L 84.92515761 63.09418667" fill="none" stroke="rgb(0,0,0)" stroke-width="0.4" data-role="sleepers" /><path d="M 82.08984014 60.19002198 L 82.59863370 63.75158231" fill="none" stroke="rgb(0,0,0)" stroke-width="0.4" data-role="sleepers" /><path d="M 80.83809069 60.92461591 L 80.03974630 60.95104278 L 79.24387125 61.03347411 L 78.48720042 61.17372513 L 77.77042609 61.37456498 L 77.09552157 61.63881187 L 76.46602459 61.96869530 L 75.88692837 62.36503293 L 75.36399470 62.82649470 L 74.90253293 63.34942837 L 74.50619530 63.92852459 L 74.17631187 64.55802157 L 73.91206498 65.23292609 L 73.71122513 65.94970042 L 73.57097411 66.70637125 L 73.48854278 67.50224630 L 73.46211591 68.30059069" fill="none" stroke="rgb(0,0,0)" stroke-width="0.6" data-role="track_rails" /><path d="M 80.91190931 63.21288409 L 80.19203877 63.23542979 L 79.56764946 63.29992160 L 79.00200652 63.40454976 L 78.49441766 63.54652877 L 78.04290413 63.72305677 L 77.64393907 63.93188791 L 77.29251840 64.17222089 L 76.98288030 64.44538030 L 76.70972089 64.75501840 L 76.46938791 65.10643907 L 76.26055677 65.50540412 L 76.08402877 65.95691766 L 75.94204976 66.46450652 L 75.83742160 67.03014946 L 75.77292979 67.65453877 L 75.75038409 68.37440931" fill="none" stroke="rgb(0,0,0)" stroke-width="0.6" data-role="track_rails" /><path d="M 79.15136630 60.38591769 L 79.66015986 63.94747802" fill="none" stroke="rgb(0,0,0)" stroke-width="0.4" data-role="sleepers" /><path d="M 76.82484239 61.04331333 L 78.31358875 64.31855532" fill="none" stroke="rgb(0,0,0)" stroke-width="0.4" data-role="sleepers" /><path d="M 74.90145361 62.36395361 L 77.44542139 64.90792139" fill="none" stroke="rgb(0,0,0)" stroke-width="0.4" data-role="sleepers" /><path d="M 73.58081333 64.28734239 L 76.85605532 65.77608875" fill="none" stroke="rgb(0,0,0)" stroke-width="0.4" data-role="sleepers" /><path d="M 72.92341769 66.61386630 L 76.48497802 67.12265986" fill="none" stroke="rgb(0,0,0)" stroke-width="0.4" data-role="sleepers" /><path d="M 73.46211591 68.37440931 L 73.48854278 69.17275370 L 73.57097411 69.96862875 L 73.71122513 70.72529958 L 73.91206498 71.44207391 L 74.17631187 72.11697843 L 74.50619530 72.74647541 L 74.90253293 73.32557163 L 75.36399470 73.84850530 L 75.88692837 74.30996707 L 76.46602459 74.70630470 L 77.09552157 75.03618813 L 77.77042609 75.30043502 L 78.48720042 75.50127487 L 79.24387125 75.64152589 L 80.03974630 75.72395722 L 80.83809069 75.75038409" fill="none" stroke="rgb(0,0,0)" stroke-width="0.6" data-role="track_rails" /><path d="M 75.75038409 68.30059069 L 75.77292979 69.02046123 L 75.83742160 69.64485054 L 75.94204976 70.21049348 L 76.08402877 70.71808234 L 76.26055677 71.16959587 L 76.46938791 71.56856093 L 76.70972089 71.91998160 L 76.98288030 72.22961970 L 77.29251840 72.50277911 L 77.64393907 72.74311209 L 78.04290413 72.95194323 L 78.49441766 73.12847123 L 79.00200652 73.27045024 L 79.56764946 73.37507840 L 80.19203877 73.43957021 L 80.91190931 73.46211591" fill="none" stroke="rgb(0,0,0)" stroke-width="0.6" data-role="track_rails" /><path d="M 72.92341769 70.06113370 L 76.48497802 69.55234014" fill="none" stroke="rgb(0,0,0)" stroke-width="0.4" data-role="sleepers" /><path d="M 73.58081333 72.38765761 L 76.85605532 70.89891125" fill="none" stroke="rgb(0,0,0)" stroke-width="0.4" data-role="sleepers" /><path d="M 74.90145361 74.31104639 L 77.44542139 71.76707861" fill="none" stroke="rgb(0,0,0)" stroke-width="0.4" data-role="sleepers" /><path d="M 76.82484239 75.63168667 L 78.31358875 72.35644468" fill="none" stroke="rgb(0,0,0)" stroke-width="0.4" data-role="sleepers" /><path d="M 79.15136630 76.28908231 L 79.66015986 72.72752198" fill="none" stroke="rgb(0,0,0)" stroke-width="0.4" data-role="sleepers" /><path d="M 88.28788409 80.83809069 L 88.26145722 80.03974630 L 88.17902589 79.24387125 L 88.03877487 78.48720042 L 87.83793502 77.77042609 L 87.57368813 77.09552157 L 87.24380470 76.46602459 L 86.84746707 75.88692837 L 86.38600530 75.36399470 L 85.86307163 74.90253293 L 85.28397541 74.50619530 L 84.65447843 74.17631187 L 83.97957391 73.91206498 L 83.26279958 73.71122513 L 82.50612875 73.57097411 L 81.71025370 73.48854278 L 80.91190931 73.46211591" fill="none" stroke="rgb(0,0,0)" stroke-width="0.6" data-role="track_rails" /><path d="M 85.99961591 80.91190931 L 85.97707021 80.19203877 L 85.91257840 79.56764946 L 85.80795024 79.00200652 L 85.66597123 78.49441766 L 85.48944323 78.04290413 L 85.28061209 77.64393907 L 85.04027911 77.29251840 L 84.76711970 76.98288030 L 84.45748160 76.70972089 L 84.10606093 76.46938791 L 83.70709588 76.26055677 L 83.25558234 76.08402877 L 82.74799348 75.94204976 L 82.18235054 75.83742160 L 81.55796123 75.77292979 L 80.83809069 75.75038409" fill="none" stroke="rgb(0,0,0)" stroke-width="0.6" data-role="track_rails" /><path d="M 88.82658231 79.15136630 L 85.26502198 79.66015986" fill="none" stroke="rgb(0,0,0)" stroke-width="0.4" data-role="sleepers" /><path d="M 88.16918667 76.82484239 L 84.89394468 78.31358875" fill="none" stroke="rgb(0,0,0)" stroke-width="0.4" data-role="sleepers" /><path d="M 86.84854639 74.90145361 L 84.30457861 77.44542139" fill="none" stroke="rgb(0,0,0)" stroke-width="0.4" data-role="sleepers" /><path d="M 84.92515761 73.58081333 L 83.43641125 76.85605532" fill="none" stroke="rgb(0,0,0)" stroke-width="0.4" data-role="sleepers" /><path d="M 82.59863370 72.92341769 L 82.08984014 76.48497802" fill="none" stroke="rgb(0,0,0)" stroke-width="0.4" data-role="sleepers" /><path d="M 85.99961591 80.83809069 L 85.97707021 81.55796123 L 85.91257840 82.18235054 L 85.80795024 82.74799348 L 85.66597123 83.25558234 L 85.48944323 83.70709588 L 85.28061209 84.10606093 L 85.04027911 84.45748160 L 84.76711970 84.76711970 L 84.45748160 85.04027911 L 84.10606093 85.28061209 L 83.70709588 85.48944323 L 83.25558234 85.66597123 L 82.74799348 85.80795024 L 82.18235054 85.91257840 L 81.55796123 85.97707021 L 80.83809069 85.99961591" fill="none" stroke="rgb(0,0,0)" stroke-width="0.6" data-role="track_rails" /><path d="M 88.28788409 80.91190931 L 88.26145722 81.71025370 L 88.17902589 82.50612875 L 88.03877487 83.26279958 L 87.83793502 83.97957391 L 87.57368813 84.65447843 L 87.24380470 85.28397541 L 86.84746707 85.86307163 L 86.38600530 86.38600530 L 85.86307163 86.84746707 L 85.28397541 87.24380470 L 84.65447843 87.57368813 L 83.97957391 87.83793502 L 83.26279958 88.03877487 L 82.50612875 88.17902589 L 81.71025370 88.26145722 L 80.91190931 88.28788409" fill="none" stroke="rgb(0,0,0)" stroke-width="0.6" data-role="track_rails" /><path d="M 85.26502198 82.08984014 L 88.82658231 82.59863370" fill="none" stroke="rgb(0,0,0)" stroke-width="0.4" data-role="sleepers" /><path d="M 84.89394468 83.43641125 L 88.16918667 84.92515761" fill="none" stroke="rgb(0,0,0)" stroke-width="0.4" data-role="sleepers" /><path d="M 84.30457861 84.30457861 L 86.84854639 86.84854639" fill="none" stroke="rgb(0,0,0)" stroke-width="0.4" data-role="sleepers" /><path d="M 83.43641125 84.89394468 L 84.92515761 88.16918667" fill="none" stroke="rgb(0,0,0)" stroke-width="0.4" data-role="sleepers" /><path d="M 82.08984014 85.26502198 L 82.59863370 88.82658231" fill="none" stroke="rgb(0,0,0)" stroke-width="0.4" data-role="sleepers" /><path d="M 80.83809069 85.99961591 L 80.03974630 86.02604278 L 79.24387125 86.10847411 L 78.48720042 86.24872513 L 77.77042609 86.44956498 L 77.09552157 86.71381187 L 76.46602459 87.04369530 L 75.88692837 87.44003293 L 75.36399470 87.90149470 L 74.90253293 88.42442837 L 74.50619530 89.00352459 L 74.17631187 89.63302157 L 73.91206498 90.30792609 L 73.71122513 91.02470042 L 73.57097411 91.78137125 L 73.48854278 92.57724630 L 73.46211591 93.37559069" fill="none" stroke="rgb(0,0,0)" stroke-width="0.6" data-role="track_rails" /><path d="M 80.91190931 88.28788409 L 80.19203877 88.31042979 L 79.56764946 88.37492160 L 79.00200652 88.47954976 L 78.49441766 88.62152877 L 78.04290413 88.79805677 L 77.64393907 89.00688791 L 77.29251840 89.24722089 L 76.98288030 89.52038030 L 76.70972089 89.83001840 L 76.46938791 90.18143907 L 76.26055677 90.58040413 L 76.08402877 91.03191766 L 75.94204976 91.53950652 L 75.83742160 92.10514946 L 75.77292979 92.72953877 L 75.75038409 93.44940931" fill="none" stroke="rgb(0,0,0)" stroke-width="0.6" data-role="track_rails" /><path d="M 79.15136630 85.46091769 L 79.66015986 89.02247802" fill="none" stroke="rgb(0,0,0)" stroke-width="0.4" data-role="sleepers" /><path d="M 76.82484239 86.11831333 L 78.31358875 89.39355532" fill="none" stroke="rgb(0,0,0)" stroke-width="0.4" data-role="sleepers" /><path d="M 74.90145361 87.43895361 L 77.44542139 89.98292139" fill="none" stroke="rgb(0,0,0)" stroke-width="0.4" data-role="sleepers" /><path d="M 73.58081333 89.36234239 L 76.85605532 90.85108875" fill="none" stroke="rgb(0,0,0)" stroke-width="0.4" data-role="sleepers" /><path d="M 72.92341769 91.68886630 L 76.48497802 92.19765986" fill="none" stroke="rgb(0,0,0)" stroke-width="0.4" data-role="sleepers" /><path d="M 73.46211591 93.44940931 L 73.48854278 94.24775370 L 73.57097411 95.04362875 L 73.71122513 95.80029958 L 73.91206498 96.51707391 L 74.17631187 97.19197843 L 74.50619530 97.82147541 L 74.90253293 98.40057163 L 75.36399470 98.92350530 L 75.88692837 99.38496707 L 76.46602459 99.78130470 L 77.09552157 100.11118813 L 77.77042609 100.37543502 L 78.48720042 100.57627487 L 79.24387125 100.71652589 L 80.03974630 100.79895722 L 80.83809069 100.82538409" fill="none" stroke="rgb(0,0,0)" stroke-width="0.6" data-role="track_rails" /><path d="M 75.75038409 93.37559069 L 75.77292979 94.09546123 L 75.83742160 94.71985054 L 75.94204976 95.28549348 L 76.08402877 95.79308234 L 76.26055677 96.24459588 L 76.46938791 96.64356093 L 76.70972089 96.99498160 L 76.98288030 97.30461970 L 77.29251840 97.57777911 L 77.64393907 97.81811209 L 78.04290413 98.02694323 L 78.49441766 98.20347123 L 79.00200652 98.34545024 L 79.56764946 98.45007840 L 80.19203877 98.51457021 L 80.91190931 98.53711591" fill="none" stroke="rgb(0,0,0)" stroke-width="0.6" data-role="track_rails" /><path d="M 72.92341769 95.13613370 L 76.48497802 94.62734014" fill="none" stroke="rgb(0,0,0)" stroke-width="0.4" data-role="sleepers" /><path d="M 73.58081333 97.46265761 L 76.85605532 95.97391125" fill="none" stroke="rgb(0,0,0)" stroke-width="0.4" data-role="sleepers" /><path d="M 74.90145361 99.38604639 L 77.44542139 96.84207861" fill="none" stroke="rgb(0,0,0)" stroke-width="0.4" data-role="sleepers" /><path d="M 76.82484239 100.70668667 L 78.31358875 97.43144468" fill="none" stroke="rgb(0,0,0)" stroke-width="0.4" data-role="sleepers" /><path d="M 79.15136630 101.36408231 L 79.66015986 97.80252198" fill="none" stroke="rgb(0,0,0)" stroke-width="0.4" data-role="sleepers" /><path d="M 93.41250000 98.53652174 L 92.96473136 98.53652174 L 92.51696273 98.53652174 L 92.06919409 98.53652174 L 91.62143091 98.53652174 L 91.17366227 98.53652174 L 90.72589364 98.53652174 L 90.27812500 98.53652174 L 89.83035636 98.53652174 L 89.38258773 98.53652174 L 88.93481909 98.53652174 L 88.48705591 98.53652174 L 88.03928727 98.53652174 L 87.59151864 98.53652174 L 87.14375000 98.53652174 L 86.69598136 98.53652174 L 86.24821273 98.53652174 L 85.80044409 98.53652174 L 85.35268091 98.53652174 L 84.90491227 98.53652174 L 84.45714364 98.53652174 L 84.00937500 98.53652174 L 83.56160636 98.53652174 L 83.11383773 98.53652174 L 82.66606909 98.53652174 L 82.21830591 98.53652174 L 81.77053727 98.53652174 L 81.32276864 98.53652174 L 80.87500000 98.53652174" fill="none" stroke="rgb(0,0,0)" stroke-width="0.6" data-role="track_rails" /><path d="M 93.41250000 100.82597826 L 92.96473136 100.82597826 L 92.51696273 100.82597826 L 92.06919409 100.82597826 L 91.62143091 100.82597826 L 91.17366227 100.82597826 L 90.72589364 100.82597826 L 90.27812500 100.82597826 L 89.83035636 100.82597826 L 89.38258773 100.82597826 L 88.93481909 100.82597826 L 88.48705591 100.82597826 L 88.03928727 100.82597826 L 87.59151864 100.82597826 L 87.14375000 100.82597826 L 86.69598136 100.82597826 L 86.24821273 100.82597826 L 85.80044409 100.82597826 L 85.35268091 100.82597826 L 84.90491227 100.82597826 L 84.45714364 100.82597826 L 84.00937500 100.82597826 L 83.56160636 100.82597826 L 83.11383773 100.82597826 L 82.66606909 100.82597826 L 82.21830591 100.82597826 L 81.77053727 100.82597826 L 81.32276864 100.82597826 L 80.87500000 100.82597826" fill="none" stroke="rgb(0,0,0)" stroke-width="0.6" data-role="track_rails" /><path d="M 92.51696273 97.88239130 L 92.51696273 101.48010870" fill="none" stroke="rgb(0,0,0)" stroke-width="0.4" data-role="sleepers" /><path d="M 90.72589364 97.88239130 L 90.72589364 101.48010870" fill="none" stroke="rgb(0,0,0)" stroke-width="0.4" data-role="sleepers" /><path d="M 88.93481909 97.88239130 L 88.93481909 101.48010870" fill="none" stroke="rgb(0,0,0)" stroke-width="0.4" data-role="sleepers" /><path d="M 87.14375000 97.88239130 L 87.14375000 101.48010870" fill="none" stroke="rgb(0,0,0)" stroke-width="0.4" data-role="sleepers" /><path d="M 85.35268091 97.88239130 L 85.35268091 101.48010870" fill="none" stroke="rgb(0,0,0)" stroke-width="0.4" data-role="sleepers" /><path d="M 83.56160636 97.88239130 L 83.56160636 101.48010870" fill="none" stroke="rgb(0,0,0)" stroke-width="0.4" data-role="sleepers" /><path d="M 81.77053727 97.88239130 L 81.77053727 101.48010870" fill="none" stroke="rgb(0,0,0)" stroke-width="0.4" data-role="sleepers" /><path d="M 98.53711591 93.37559069 L 98.51457021 94.09546123 L 98.45007840 94.71985054 L 98.34545024 95.28549348 L 98.20347123 95.79308234 L 98.02694323 96.24459588 L 97.81811209 96.64356093 L 97.57777911 96.99498160 L 97.30461970 97.30461970 L 96.99498160 97.57777911 L 96.64356093 97.81811209 L 96.24459588 98.02694323 L 95.79308234 98.20347123 L 95.28549348 98.34545024 L 94.71985054 98.45007840 L 94.09546123 98.51457021 L 93.37559069 98.53711591" fill="none" stroke="rgb(0,0,0)" stroke-width="0.6" data-role="track_rails" /><path d="M 100.82538409 93.44940931 L 100.79895722 94.24775370 L 100.71652589 95.04362875 L 100.57627487 95.80029958 L 100.37543502 96.51707391 L 100.11118813 97.19197843 L 99.78130470 97.82147541 L 99.38496707 98.40057163 L 98.92350530 98.92350530 L 98.40057163 99.38496707 L 97.82147541 99.78130470 L 97.19197843 100.11118813 L 96.51707391 100.37543502 L 95.80029958 100.57627487 L 95.04362875 100.71652589 L 94.24775370 100.79895722 L 93.44940931 100.82538409" fill="none" stroke="rgb(0,0,0)" stroke-width="0.6" data-role="track_rails" /><path d="M 97.80252198 94.62734014 L 101.36408231 95.13613370" fill="none" stroke="rgb(0,0,0)" stroke-width="0.4" data-role="sleepers" /><path d="M 97.43144468 95.97391125 L 100.70668667 97.46265761" fill="none" stroke="rgb(0,0,0)" stroke-width="0.4" data-role="sleepers" /><path d="M 96.84207861 96.84207861 L 99.38604639 99.38604639" fill="none" stroke="rgb(0,0,0)" stroke-width="0.4" data-role="sleepers" /><path d="M 95.97391125 97.43144468 L 97.46265761 100.70668667" fill="none" stroke="rgb(0,0,0)" stroke-width="0.4" data-role="sleepers" /><path d="M 94.62734014 97.80252198 L 95.13613370 101.36408231" fill="none" stroke="rgb(0,0,0)" stroke-width="0.4" data-role="sleepers" /><path d="M 98.53652174 80.87500000 L 98.53652174 81.32276864 L 98.53652174 81.77053727 L 98.53652174 82.21830591 L 98.53652174 82.66606909 L 98.53652174 83.11383773 L 98.53652174 83.56160636 L 98.53652174 84.00937500 L 98.53652174 84.45714364 L 98.53652174 84.90491227 L 98.53652174 85.35268091 L 98.53652174 85.80044409 L 98.53652174 86.24821273 L 98.53652174 86.69598136 L 98.53652174 87.14375000 L 98.53652174 87.59151864 L 98.53652174 88.03928727 L 98.53652174 88.48705591 L 98.53652174 88.93481909 L 98.53652174 89.38258773 L 98.53652174 89.83035636 L 98.53652174 90.27812500 L 98.53652174 90.72589364 L 98.53652174 91.17366227 L 98.53652174 91.62143091 L 98.53652174 92.06919409 L 98.53652174 92.51696273 L 98.53652174 92.96473136 L 98.53652174 93.41250000" fill="none" stroke="rgb(0,0,0)" stroke-width="0.6" data-role="track_rails" /><path d="M 100.82597826 80.87500000 L 100.82597826 81.32276864 L 100.82597826 81.77053727 L 100.82597826 82.21830591 L 100.82597826 82.66606909 L 100.82597826 83.11383773 L 100.82597826 83.56160636 L 100.82597826 84.00937500 L 100.82597826 84.45714364 L 100.82597826 84.90491227 L 100.82597826 85.35268091 L 100.82597826 85.80044409 L 100.82597826 86.24821273 L 100.82597826 86.69598136 L 100.82597826 87.14375000 L 100.82597826 87.59151864 L 100.82597826 88.03928727 L 100.82597826 88.48705591 L 100.82597826 88.93481909 L 100.82597826 89.38258773 L 100.82597826 89.83035636 L 100.82597826 90.27812500 L 100.82597826 90.72589364 L 100.82597826 91.17366227 L 100.82597826 91.62143091 L 100.82597826 92.06919409 L 100.82597826 92.51696273 L 100.82597826 92.96473136 L 100.82597826 93.41250000" fill="none" stroke="rgb(0,0,0)" stroke-width="0.6" data-role="track_rails" /><path d="M 97.88239130 81.77053727 L 101.48010870 81.77053727" fill="none" stroke="rgb(0,0,0)" stroke-width="0.4" data-role="sleepers" /><path d="M 97.88239130 83.56160636 L 101.48010870 83.56160636" fill="none" stroke="rgb(0,0,0)" stroke-width="0.4" data-role="sleepers" /><path d="M 97.88239130 85.35268091 L 101.48010870 85.35268091" fill="none" stroke="rgb(0,0,0)" stroke-width="0.4" data-role="sleepers" /><path d="M 97.88239130 87.14375000 L 101.48010870 87.14375000" fill="none" stroke="rgb(0,0,0)" stroke-width="0.4" data-role="sleepers" /><path d="M 97.88239130 88.93481909 L 101.48010870 88.93481909" fill="none" stroke="rgb(0,0,0)" stroke-width="0.4" data-role="sleepers" /><path d="M 97.88239130 90.72589364 L 101.48010870 90.72589364" fill="none" stroke="rgb(0,0,0)" stroke-width="0.4" data-role="sleepers" /><path d="M 97.88239130 92.51696273 L 101.48010870 92.51696273" fill="none" stroke="rgb(0,0,0)" stroke-width="0.4" data-role="sleepers" /><path d="M 98.53652174 68.33750000 L 98.53652174 68.78526864 L 98.53652174 69.23303727 L 98.53652174 69.68080591 L 98.53652174 70.12856909 L 98.53652174 70.57633773 L 98.53652174 71.02410636 L 98.53652174 71.47187500 L 98.53652174 71.91964364 L 98.53652174 72.36741227 L 98.53652174 72.81518091 L 98.53652174 73.26294409 L 98.53652174 73.71071273 L 98.53652174 74.15848136 L 98.53652174 74.60625000 L 98.53652174 75.05401864 L 98.53652174 75.50178727 L 98.53652174 75.94955591 L 98.53652174 76.39731909 L 98.53652174 76.84508773 L 98.53652174 77.29285636 L 98.53652174 77.74062500 L 98.53652174 78.18839364 L 98.53652174 78.63616227 L 98.53652174 79.08393091 L 98.53652174 79.53169409 L 98.53652174 79.97946273 L 98.53652174 80.42723136 L 98.53652174 80.87500000" fill="none" stroke="rgb(0,0,0)" stroke-width="0.6" data-role="track_rails" /><path d="M 100.82597826 68.33750000 L 100.82597826 68.78526864 L 100.82597826 69.23303727 L 100.82597826 69.68080591 L 100.82597826 70.12856909 L 100.82597826 70.57633773 L 100.82597826 71.02410636 L 100.82597826 71.47187500 L 100.82597826 71.91964364 L 100.82597826 72.36741227 L 100.82597826 72.81518091 L 100.82597826 73.26294409 L 100.82597826 73.71071273 L 100.82597826 74.15848136 L 100.82597826 74.60625000 L 100.82597826 75.05401864 L 100.82597826 75.50178727 L 100.82597826 75.94955591 L 100.82597826 76.39731909 L 100.82597826 76.84508773 L 100.82597826 77.29285636 L 100.82597826 77.74062500 L 100.82597826 78.18839364 L 100.82597826 78.63616227 L 100.82597826 79.08393091 L 100.82597826 79.53169409 L 100.82597826 79.97946273 L 100.82597826 80.42723136 L 100.82597826 80.87500000" fill="none" stroke="rgb(0,0,0)" stroke-width="0.6" data-role="track_rails" /><path d="M 97.88239130 69.23303727 L 101.48010870 69.23303727" fill="none" stroke="rgb(0,0,0)" stroke-width="0.4" data-role="sleepers" /><path d="M 97.88239130 71.02410636 L 101.48010870 71.02410636" fill="none" stroke="rgb(0,0,0)" stroke-width="0.4" data-role="sleepers" /><path d="M 97.88239130 72.81518091 L 101.48010870 72.81518091" fill="none" stroke="rgb(0,0,0)" stroke-width="0.4" data-role="sleepers" /><path d="M 97.88239130 74.60625000 L 101.48010870 74.60625000" fill="none" stroke="rgb(0,0,0)" stroke-width="0.4" data-role="sleepers" /><path d="M 97.88239130 76.39731909 L 101.48010870 76.39731909" fill="none" stroke="rgb(0,0,0)" stroke-width="0.4" data-role="sleepers" /><path d="M 97.88239130 78.18839364 L 101.48010870 78.18839364" fill="none" stroke="rgb(0,0,0)" stroke-width="0.4" data-role="sleepers" /><path d="M 97.88239130 79.97946273 L 101.48010870 79.97946273" fill="none" stroke="rgb(0,0,0)" stroke-width="0.4" data-role="sleepers" /><path d="M 98.53652174 55.80000000 L 98.53652174 56.24776864 L 98.53652174 56.69553727 L 98.53652174 57.14330591 L 98.53652174 57.59106909 L 98.53652174 58.03883773 L 98.53652174 58.48660636 L 98.53652174 58.93437500 L 98.53652174 59.38214364 L 98.53652174 59.82991227 L 98.53652174 60.27768091 L 98.53652174 60.72544409 L 98.53652174 61.17321273 L 98.53652174 61.62098136 L 98.53652174 62.06875000 L 98.53652174 62.51651864 L 98.53652174 62.96428727 L 98.53652174 63.41205591 L 98.53652174 63.85981909 L 98.53652174 64.30758773 L 98.53652174 64.75535636 L 98.53652174 65.20312500 L 98.53652174 65.65089364 L 98.53652174 66.09866227 L 98.53652174 66.54643091 L 98.53652174 66.99419409 L 98.53652174 67.44196273 L 98.53652174 67.88973136 L 98.53652174 68.33750000" fill="none" stroke="rgb(0,0,0)" stroke-width="0.6" data-role="track_rails" /><path d="M 100.82597826 55.80000000 L 100.82597826 56.24776864 L 100.82597826 56.69553727 L 100.82597826 57.14330591 L 100.82597826 57.59106909 L 100.82597826 58.03883773 L 100.82597826 58.48660636 L 100.82597826 58.93437500 L 100.82597826 59.38214364 L 100.82597826 59.82991227 L 100.82597826 60.27768091 L 100.82597826 60.72544409 L 100.82597826 61.17321273 L 100.82597826 61.62098136 L 100.82597826 62.06875000 L 100.82597826 62.51651864 L 100.82597826 62.96428727 L 100.82597826 63.41205591 L 100.82597826 63.85981909 L 100.82597826 64.30758773 L 100.82597826 64.75535636 L 100.82597826 65.20312500 L 100.82597826 65.65089364 L 100.82597826 66.09866227 L 100.82597826 66.54643091 L 100.82597826 66.99419409 L 100.82597826 67.44196273 L 100.82597826 67.88973136 L 100.82597826 68.33750000" fill="none" stroke="rgb(0,0,0)" stroke-width="0.6" data-role="track_rails" /><path d="M 97.88239130 56.69553727 L 101.48010870 56.69553727" fill="none" stroke="rgb(0,0,0)" stroke-width="0.4" data-role="sleepers" /><path d="M 97.88239130 58.48660636 L 101.48010870 58.48660636" fill="none" stroke="rgb(0,0,0)" stroke-width="0.4" data-role="sleepers" /><path d="M 97.88239130 60.27768091 L 101.48010870 60.27768091" fill="none" stroke="rgb(0,0,0)" stroke-width="0.4" data-role="sleepers" /><path d="M 97.88239130 62.06875000 L 101.48010870 62.06875000" fill="none" stroke="rgb(0,0,0)" stroke-width="0.4" data-role="sleepers" /><path d="M 97.88239130 63.85981909 L 101.48010870 63.85981909" fill="none" stroke="rgb(0,0,0)" stroke-width="0.4" data-role="sleepers" /><path d="M 97.88239130 65.65089364 L 101.48010870 65.65089364" fill="none" stroke="rgb(0,0,0)" stroke-width="0.4" data-role="sleepers" /><path d="M 97.88239130 67.44196273 L 101.48010870 67.44196273" fill="none" stroke="rgb(0,0,0)" stroke-width="0.4" data-role="sleepers" /><path d="M 98.53652174 43.26250000 L 98.53652174 43.71026864 L 98.53652174 44.15803727 L 98.53652174 44.60580591 L 98.53652174 45.05356909 L 98.53652174 45.50133773 L 98.53652174 45.94910636 L 98.53652174 46.39687500 L 98.53652174 46.84464364 L 98.53652174 47.29241227 L 98.53652174 47.74018091 L 98.53652174 48.18794409 L 98.53652174 48.63571273 L 98.53652174 49.08348136 L 98.53652174 49.53125000 L 98.53652174 49.97901864 L 98.53652174 50.42678727 L 98.53652174 50.87455591 L 98.53652174 51.32231909 L 98.53652174 51.77008773 L 98.53652174 52.21785636 L 98.53652174 52.66562500 L 98.53652174 53.11339364 L 98.53652174 53.56116227 L 98.53652174 54.00893091 L 98.53652174 54.45669409 L 98.53652174 54.90446273 L 98.53652174 55.35223136 L 98.53652174 55.80000000" fill="none" stroke="rgb(0,0,0)" stroke-width="0.6" data-role="track_rails" /><path d="M 100.82597826 43.26250000 L 100.82597826 43.71026864 L 100.82597826 44.15803727 L 100.82597826 44.60580591 L 100.82597826 45.05356909 L 100.82597826 45.50133773 L 100.82597826 45.94910636 L 100.82597826 46.39687500 L 100.82597826 46.84464364 L 100.82597826 47.29241227 L 100.82597826 47.74018091 L 100.82597826 48.18794409 L 100.82597826 48.63571273 L 100.82597826 49.08348136 L 100.82597826 49.53125000 L 100.82597826 49.97901864 L 100.82597826 50.42678727 L 100.82597826 50.87455591 L 100.82597826 51.32231909 L 100.82597826 51.77008773 L 100.82597826 52.21785636 L 100.82597826 52.66562500 L 100.82597826 53.11339364 L 100.82597826 53.56116227 L 100.82597826 54.00893091 L 100.82597826 54.45669409 L 100.82597826 54.90446273 L 100.82597826 55.35223136 L 100.82597826 55.80000000" fill="none" stroke="rgb(0,0,0)" stroke-width="0.6" data-role="track_rails" /><path d="M 97.88239130 44.15803727 L 101.48010870 44.15803727" fill="none" stroke="rgb(0,0,0)" stroke-width="0.4" data-role="sleepers" /><path d="M 97.88239130 45.94910636 L 101.48010870 45.94910636" fill="none" stroke="rgb(0,0,0)" stroke-width="0.4" data-role="sleepers" /><path d="M 97.88239130 47.74018091 L 101.48010870 47.74018091" fill="none" stroke="rgb(0,0,0)" stroke-width="0.4" data-role="sleepers" /><path d="M 97.88239130 49.53125000 L 101.48010870 49.53125000" fill="none" stroke="rgb(0,0,0)" stroke-width="0.4" data-role="sleepers" /><path d="M 97.88239130 51.32231909 L 101.48010870 51.32231909" fill="none" stroke="rgb(0,0,0)" stroke-width="0.4" data-role="sleepers" /><path d="M 97.88239130 53.11339364 L 101.48010870 53.11339364" fill="none" stroke="rgb(0,0,0)" stroke-width="0.4" data-role="sleepers" /><path d="M 97.88239130 54.90446273 L 101.48010870 54.90446273" fill="none" stroke="rgb(0,0,0)" stroke-width="0.4" data-role="sleepers" /><path d="M 98.53652174 30.72500000 L 98.53652174 31.17276864 L 98.53652174 31.62053727 L 98.53652174 32.06830591 L 98.53652174 32.51606909 L 98.53652174 32.96383773 L 98.53652174 33.41160636 L 98.53652174 33.85937500 L 98.53652174 34.30714364 L 98.53652174 34.75491227 L 98.53652174 35.20268091 L 98.53652174 35.65044409 L 98.53652174 36.09821273 L 98.53652174 36.54598136 L 98.53652174 36.99375000 L 98.53652174 37.44151864 L 98.53652174 37.88928727 L 98.53652174 38.33705591 L 98.53652174 38.78481909 L 98.53652174 39.23258773 L 98.53652174 39.68035636 L 98.53652174 40.12812500 L 98.53652174 40.57589364 L 98.53652174 41.02366227 L 98.53652174 41.47143091 L 98.53652174 41.91919409 L 98.53652174 42.36696273 L 98.53652174 42.81473136 L 98.53652174 43.26250000" fill="none" stroke="rgb(0,0,0)" stroke-width="0.6" data-role="track_rails" /><path d="M 100.82597826 30.72500000 L 100.82597826 31.17276864 L 100.82597826 31.62053727 L 100.82597826 32.06830591 L 100.82597826 32.51606909 L 100.82597826 32.96383773 L 100.82597826 33.41160636 L 100.82597826 33.85937500 L 100.82597826 34.30714364 L 100.82597826 34.75491227 L 100.82597826 35.20268091 L 100.82597826 35.65044409 L 100.82597826 36.09821273 L 100.82597826 36.54598136 L 100.82597826 36.99375000 L 100.82597826 37.44151864 L 100.82597826 37.88928727 L 100.82597826 38.33705591 L 100.82597826 38.78481909 L 100.82597826 39.23258773 L 100.82597826 39.68035636 L 100.82597826 40.12812500 L 100.82597826 40.57589364 L 100.82597826 41.02366227 L 100.82597826 41.47143091 L 100.82597826 41.91919409 L 100.82597826 42.36696273 L 100.82597826 42.81473136 L 100.82597826 43.26250000" fill="none" stroke="rgb(0,0,0)" stroke-width="0.6" data-role="track_rails" /><path d="M 97.88239130 31.62053727 L 101.48010870 31.62053727" fill="none" stroke="rgb(0,0,0)" stroke-width="0.4" data-role="sleepers" /><path d="M 97.88239130 33.41160636 L 101.48010870 33.41160636" fill="none" stroke="rgb(0,0,0)" stroke-width="0.4" data-role="sleepers" /><path d="M 97.88239130 35.20268091 L 101.48010870 35.20268091" fill="none" stroke="rgb(0,0,0)" stroke-width="0.4" data-role="sleepers" /><path d="M 97.88239130 36.99375000 L 101.48010870 36.99375000" fill="none" stroke="rgb(0,0,0)" stroke-width="0.4" data-role="sleepers" /><path d="M 97.88239130 38.78481909 L 101.48010870 38.78481909" fill="none" stroke="rgb(0,0,0)" stroke-width="0.4" data-role="sleepers" /><path d="M 97.88239130 40.57589364 L 101.48010870 40.57589364" fill="none" stroke="rgb(0,0,0)" stroke-width="0.4" data-role="sleepers" /><path d="M 97.88239130 42.36696273 L 101.48010870 42.36696273" fill="none" stroke="rgb(0,0,0)" stroke-width="0.4" data-role="sleepers" /><path d="M 105.91309069 23.31211591 L 105.11474630 23.33854278 L 104.31887125 23.42097411 L 103.56220042 23.56122513 L 102.84542609 23.76206498 L 102.17052157 24.02631187 L 101.54102459 24.35619530 L 100.96192837 24.75253293 L 100.43899470 25.21399470 L 99.97753293 25.73692837 L 99.58119530 26.31602459 L 99.25131187 26.94552157 L 98.98706498 27.62042609 L 98.78622513 28.33720042 L 98.64597411 29.09387125 L 98.56354278 29.88974630 L 98.53711591 30.68809069" fill="none" stroke="rgb(0,0,0)" stroke-width="0.6" data-role="track_rails" /><path d="M 105.98690931 25.60038409 L 105.26703877 25.62292979 L 104.64264946 25.68742160 L 104.07700652 25.79204976 L 103.56941766 25.93402877 L 103.11790413 26.11055677 L 102.71893907 26.31938791 L 102.36751840 26.55972089 L 102.05788030 26.83288030 L 101.78472089 27.14251840 L 101.54438791 27.49393907 L 101.33555677 27.89290413 L 101.15902877 28.34441766 L 101.01704976 28.85200652 L 100.91242160 29.41764946 L 100.84792979 30.04203877 L 100.82538409 30.76190931" fill="none" stroke="rgb(0,0,0)" stroke-width="0.6" data-role="track_rails" /><path d="M 101.89984239 23.43081333 L 103.38858875 26.70605532" fill="none" stroke="rgb(0,0,0)" stroke-width="0.4" data-role="sleepers" /><path d="M 99.97645361 24.75145361 L 102.52042139 27.29542139" fill="none" stroke="rgb(0,0,0)" stroke-width="0.4" data-role="sleepers" /><path d="M 98.65581333 26.67484239 L 101.93105532 28.16358875" fill="none" stroke="rgb(0,0,0)" stroke-width="0.4" data-role="sleepers" /><path d="M 97.99841769 29.00136630 L 101.55997802 29.51015986" fill="none" stroke="rgb(0,0,0)" stroke-width="0.4" data-role="sleepers" /><path d="M 3.54370000 24.45625000 L 6.55270000 27.59062500 L 6.55270000 21.32187500 Z" fill="rgb(0,0,0)" stroke="none" stroke-width="0" data-role="arrow" /><path d="M 108.05630000 24.45625000 L 105.04730000 21.32187500 L 105.04730000 27.59062500 Z" fill="rgb(0,0,0)" stroke="none" stroke-width="0" data-role="arrow" /></g><path d="M23.228 18.288H25.856Q25.916 18.288 25.958 18.33Q26.0 18.372 26.0 18.432V19.344Q26.0 19.404 25.958 19.445999999999998Q25.916 19.488 25.856 19.488H21.668Q21.608 19.488 21.566000000000003 19.445999999999998Q21.524 19.404 21.524 19.344V18.384Q21.524 18.276 21.584 18.204L22.052 17.567999999999998Q22.52 16.944 22.97 16.296Q23.42 15.648 23.732 15.132Q24.428 13.98 24.428 13.224Q24.428 12.744 24.218000000000004 12.468Q24.008000000000003 12.192 23.66 12.192Q23.312 12.192 23.108 12.462Q22.904 12.732 22.916 13.175999999999998V13.643999999999998Q22.916 13.704 22.874000000000002 13.746Q22.832 13.788 22.772000000000002 13.788H21.644000000000002Q21.584 13.788 21.542 13.746Q21.5 13.704 21.5 13.643999999999998V13.128Q21.548000000000002 12.168 22.154000000000003 11.579999999999998Q22.76 10.991999999999999 23.720000000000002 10.991999999999999Q24.668 10.991999999999999 25.25 11.61Q25.832 12.228 25.832 13.236Q25.832 13.835999999999999 25.628 14.424Q25.424 15.012 24.98 15.684Q24.68 16.163999999999998 24.266 16.74Q23.852 17.316 23.720000000000002 17.496Q23.36 17.976 23.192 18.216Q23.168 18.24 23.18 18.264Q23.192 18.288 23.228 18.288Z" fill="black" stroke="none" data-role="number" data-axis="column" data-index="0" /><path d="M51.928 18.288H54.556Q54.616 18.288 54.658 18.33Q54.699999999999996 18.372 54.699999999999996 18.432V19.344Q54.699999999999996 19.404 54.658 19.445999999999998Q54.616 19.488 54.556 19.488H50.367999999999995Q50.308 19.488 50.266 19.445999999999998Q50.224 19.404 50.224 19.344V18.384Q50.224 18.276 50.284 18.204L50.751999999999995 17.567999999999998Q51.22 16.944 51.67 16.296Q52.12 15.648 52.431999999999995 15.132Q53.128 13.98 53.128 13.224Q53.128 12.744 52.918 12.468Q52.708 12.192 52.36 12.192Q52.012 12.192 51.808 12.462Q51.604 12.732 51.616 13.175999999999998V13.643999999999998Q51.616 13.704 51.574 13.746Q51.532 13.788 51.471999999999994 13.788H50.343999999999994Q50.284 13.788 50.242 13.746Q50.199999999999996 13.704 50.199999999999996 13.643999999999998V13.128Q50.248 12.168 50.854 11.579999999999998Q51.459999999999994 10.991999999999999 52.419999999999995 10.991999999999999Q53.367999999999995 10.991999999999999 53.949999999999996 11.61Q54.532 12.228 54.532 13.236Q54.532 13.835999999999999 54.327999999999996 14.424Q54.123999999999995 15.012 53.68 15.684Q53.379999999999995 16.163999999999998 52.965999999999994 16.74Q52.552 17.316 52.419999999999995 17.496Q52.059999999999995 17.976 51.891999999999996 18.216Q51.867999999999995 18.24 51.879999999999995 18.264Q51.891999999999996 18.288 51.928 18.288Z" fill="black" stroke="none" data-role="number" data-axis="column" data-index="1" /><path d="M80.628 18.288H83.256Q83.316 18.288 83.358 18.33Q83.4 18.372 83.4 18.432V19.344Q83.4 19.404 83.358 19.445999999999998Q83.316 19.488 83.256 19.488H79.06800000000001Q79.00800000000001 19.488 78.96600000000001 19.445999999999998Q78.924 19.404 78.924 19.344V18.384Q78.924 18.276 78.98400000000001 18.204L79.45200000000001 17.567999999999998Q79.92 16.944 80.37 16.296Q80.82000000000001 15.648 81.132 15.132Q81.828 13.98 81.828 13.224Q81.828 12.744 81.618 12.468Q81.408 12.192 81.06 12.192Q80.712 12.192 80.50800000000001 12.462Q80.304 12.732 80.316 13.175999999999998V13.643999999999998Q80.316 13.704 80.274 13.746Q80.23200000000001 13.788 80.17200000000001 13.788H79.04400000000001Q78.98400000000001 13.788 78.94200000000001 13.746Q78.9 13.704 78.9 13.643999999999998V13.128Q78.94800000000001 12.168 79.554 11.579999999999998Q80.16000000000001 10.991999999999999 81.12 10.991999999999999Q82.06800000000001 10.991999999999999 82.65 11.61Q83.232 12.228 83.232 13.236Q83.232 13.835999999999999 83.028 14.424Q82.82400000000001 15.012 82.38000000000001 15.684Q82.08000000000001 16.163999999999998 81.66600000000001 16.74Q81.25200000000001 17.316 81.12 17.496Q80.76 17.976 80.59200000000001 18.216Q80.56800000000001 18.24 80.58000000000001 18.264Q80.59200000000001 18.288 80.628 18.288Z" fill="black" stroke="none" data-role="number" data-axis="column" data-index="2" /><path d="M109.32799999999999 18.288H111.95599999999999Q112.01599999999999 18.288 112.05799999999999 18.33Q112.1 18.372 112.1 18.432V19.344Q112.1 19.404 112.05799999999999 19.445999999999998Q112.01599999999999 19.488 111.95599999999999 19.488H107.768Q107.708 19.488 107.666 19.445999999999998Q107.624 19.404 107.624 19.344V18.384Q107.624 18.276 107.684 18.204L108.152 17.567999999999998Q108.61999999999999 16.944 109.07 16.296Q109.52 15.648 109.832 15.132Q110.52799999999999 13.98 110.52799999999999 13.224Q110.52799999999999 12.744 110.31799999999998 12.468Q110.10799999999999 12.192 109.75999999999999 12.192Q109.41199999999999 12.192 109.208 12.462Q109.00399999999999 12.732 109.01599999999999 13.175999999999998V13.643999999999998Q109.01599999999999 13.704 108.97399999999999 13.746Q108.932 13.788 108.872 13.788H107.744Q107.684 13.788 107.642 13.746Q107.6 13.704 107.6 13.643999999999998V13.128Q107.648 12.168 108.25399999999999 11.579999999999998Q108.86 10.991999999999999 109.82 10.991999999999999Q110.768 10.991999999999999 111.35 11.61Q111.93199999999999 12.228 111.93199999999999 13.236Q111.93199999999999 13.835999999999999 111.728 14.424Q111.524 15.012 111.08 15.684Q110.78 16.163999999999998 110.366 16.74Q109.952 17.316 109.82 17.496Q109.46 17.976 109.292 18.216Q109.268 18.24 109.28 18.264Q109.292 18.288 109.32799999999999 18.288Z" fill="black" stroke="none" data-role="number" data-axis="column" data-index="3" /><path d="M138.57399999999998 11.040000000000001H139.726Q139.78599999999997 11.040000000000001 139.82799999999997 11.082Q139.86999999999998 11.124 139.86999999999998 11.184000000000001V19.296000000000003Q139.86999999999998 19.356 139.82799999999997 19.398000000000003Q139.78599999999997 19.44 139.726 19.44H138.62199999999999Q138.56199999999998 19.44 138.51999999999998 19.398000000000003Q138.47799999999998 19.356 138.47799999999998 19.296000000000003V12.528000000000002Q138.47799999999998 12.504000000000001 138.45999999999998 12.48Q138.44199999999998 12.456000000000001 138.41799999999998 12.468L137.434 12.66H137.398Q137.266 12.66 137.266 12.528000000000002L137.23 11.724Q137.23 11.604000000000001 137.326 11.556000000000001L138.39399999999998 11.076Q138.47799999999998 11.040000000000001 138.57399999999998 11.040000000000001Z" fill="black" stroke="none" data-role="number" data-axis="column" data-index="4" /><path d="M168.546 15.095999999999998Q168.94199999999998 15.323999999999998 169.146 15.791999999999998Q169.398 16.355999999999998 169.398 17.064Q169.398 17.7 169.206 18.18Q168.96599999999998 18.828 168.456 19.194Q167.946 19.56 167.238 19.56Q166.54199999999997 19.56 166.03199999999998 19.2Q165.522 18.84 165.28199999999998 18.192Q165.10199999999998 17.688 165.10199999999998 17.064Q165.10199999999998 16.355999999999998 165.31799999999998 15.851999999999999Q165.498 15.371999999999998 165.95399999999998 15.107999999999999Q166.00199999999998 15.072 165.95399999999998 15.035999999999998Q165.558 14.783999999999999 165.34199999999998 14.34Q165.10199999999998 13.823999999999998 165.10199999999998 13.187999999999999Q165.10199999999998 12.491999999999997 165.34199999999998 12.023999999999997Q165.582 11.495999999999999 166.07999999999998 11.207999999999998Q166.57799999999997 10.919999999999998 167.238 10.919999999999998Q167.886 10.919999999999998 168.384 11.201999999999998Q168.88199999999998 11.483999999999998 169.134 12.011999999999999Q169.398 12.515999999999998 169.398 13.187999999999999Q169.398 13.811999999999998 169.158 14.315999999999999Q168.94199999999998 14.759999999999998 168.546 15.011999999999999Q168.474 15.059999999999999 168.546 15.095999999999998ZM166.55399999999997 12.755999999999998Q166.47 12.971999999999998 166.47 13.308Q166.47 13.668 166.58999999999997 13.991999999999997Q166.67399999999998 14.244 166.84199999999998 14.387999999999998Q167.01 14.531999999999998 167.238 14.531999999999998Q167.48999999999998 14.531999999999998 167.664 14.381999999999998Q167.838 14.232 167.922 13.956Q168.01799999999997 13.668 168.01799999999997 13.308Q168.01799999999997 12.899999999999999 167.898 12.648Q167.814 12.395999999999997 167.646 12.257999999999997Q167.47799999999998 12.119999999999997 167.238 12.119999999999997Q167.022 12.119999999999997 166.85999999999999 12.245999999999999Q166.69799999999998 12.371999999999998 166.61399999999998 12.587999999999997ZM168.01799999999997 16.991999999999997Q168.01799999999997 16.535999999999998 167.91 16.212Q167.838 15.924 167.664 15.761999999999999Q167.48999999999998 15.599999999999998 167.238 15.599999999999998Q166.986 15.599999999999998 166.81199999999998 15.767999999999997Q166.63799999999998 15.935999999999998 166.56599999999997 16.247999999999998Q166.47 16.56 166.47 16.968Q166.47 17.34 166.54199999999997 17.651999999999997Q166.60199999999998 17.988 166.78799999999998 18.174Q166.974 18.36 167.238 18.36Q167.51399999999998 18.36 167.706 18.168Q167.898 17.976 167.958 17.628Q168.01799999999997 17.304 168.01799999999997 16.991999999999997Z" fill="black" stroke="none" data-role="number" data-axis="column" data-index="5" /><path d="M197.24599999999998 15.095999999999998Q197.64199999999997 15.323999999999998 197.84599999999998 15.791999999999998Q198.09799999999998 16.355999999999998 198.09799999999998 17.064Q198.09799999999998 17.7 197.90599999999998 18.18Q197.66599999999997 18.828 197.15599999999998 19.194Q196.646 19.56 195.938 19.56Q195.24199999999996 19.56 194.73199999999997 19.2Q194.22199999999998 18.84 193.98199999999997 18.192Q193.80199999999996 17.688 193.80199999999996 17.064Q193.80199999999996 16.355999999999998 194.01799999999997 15.851999999999999Q194.19799999999998 15.371999999999998 194.65399999999997 15.107999999999999Q194.70199999999997 15.072 194.65399999999997 15.035999999999998Q194.25799999999998 14.783999999999999 194.04199999999997 14.34Q193.80199999999996 13.823999999999998 193.80199999999996 13.187999999999999Q193.80199999999996 12.491999999999997 194.04199999999997 12.023999999999997Q194.28199999999998 11.495999999999999 194.77999999999997 11.207999999999998Q195.27799999999996 10.919999999999998 195.938 10.919999999999998Q196.58599999999998 10.919999999999998 197.08399999999997 11.201999999999998Q197.58199999999997 11.483999999999998 197.83399999999997 12.011999999999999Q198.09799999999998 12.515999999999998 198.09799999999998 13.187999999999999Q198.09799999999998 13.811999999999998 197.85799999999998 14.315999999999999Q197.64199999999997 14.759999999999998 197.24599999999998 15.011999999999999Q197.17399999999998 15.059999999999999 197.24599999999998 15.095999999999998ZM195.25399999999996 12.755999999999998Q195.17 12.971999999999998 195.17 13.308Q195.17 13.668 195.28999999999996 13.991999999999997Q195.37399999999997 14.244 195.54199999999997 14.387999999999998Q195.70999999999998 14.531999999999998 195.938 14.531999999999998Q196.18999999999997 14.531999999999998 196.36399999999998 14.381999999999998Q196.53799999999998 14.232 196.62199999999999 13.956Q196.71799999999996 13.668 196.71799999999996 13.308Q196.71799999999996 12.899999999999999 196.59799999999998 12.648Q196.51399999999998 12.395999999999997 196.34599999999998 12.257999999999997Q196.17799999999997 12.119999999999997 195.938 12.119999999999997Q195.72199999999998 12.119999999999997 195.55999999999997 12.245999999999999Q195.39799999999997 12.371999999999998 195.31399999999996 12.587999999999997ZM196.71799999999996 16.991999999999997Q196.71799999999996 16.535999999999998 196.60999999999999 16.212Q196.53799999999998 15.924 196.36399999999998 15.761999999999999Q196.18999999999997 15.599999999999998 195.938 15.599999999999998Q195.68599999999998 15.599999999999998 195.51199999999997 15.767999999999997Q195.33799999999997 15.935999999999998 195.26599999999996 16.247999999999998Q195.17 16.56 195.17 16.968Q195.17 17.34 195.24199999999996 17.651999999999997Q195.30199999999996 17.988 195.48799999999997 18.174Q195.67399999999998 18.36 195.938 18.36Q196.21399999999997 18.36 196.40599999999998 18.168Q196.59799999999998 17.976 196.658 17.628Q196.71799999999996 17.304 196.71799999999996 16.991999999999997Z" fill="black" stroke="none" data-role="number" data-axis="column" data-index="6" /><path d="M223.35399999999998 19.284000000000002 225.33399999999997 12.312000000000001Q225.35799999999998 12.240000000000002 225.28599999999997 12.240000000000002H223.66599999999997Q223.60599999999997 12.240000000000002 223.60599999999997 12.3V12.732000000000001Q223.60599999999997 12.792000000000002 223.56399999999996 12.834000000000001Q223.52199999999996 12.876000000000001 223.46199999999996 12.876000000000001H222.60999999999999Q222.54999999999998 12.876000000000001 222.50799999999998 12.834000000000001Q222.46599999999998 12.792000000000002 222.46599999999998 12.732000000000001L222.47799999999998 11.184000000000001Q222.47799999999998 11.124 222.51999999999998 11.082Q222.56199999999998 11.040000000000001 222.62199999999999 11.040000000000001H226.68999999999997Q226.74999999999997 11.040000000000001 226.79199999999997 11.082Q226.83399999999997 11.124 226.83399999999997 11.184000000000001V12.156000000000002Q226.83399999999997 12.204 226.80999999999997 12.324000000000002L224.80599999999998 19.32Q224.76999999999998 19.44 224.63799999999998 19.44H223.47399999999996Q223.31799999999998 19.44 223.35399999999998 19.284000000000002Z" fill="black" stroke="none" data-role="number" data-axis="column" data-index="7" /><path d="M254.77200000000002 44.798Q254.77200000000002 45.074 254.74800000000002 45.578Q254.68800000000002 46.49 254.118 46.988Q253.548 47.486 252.612 47.486Q251.72400000000002 47.486 251.17200000000003 47.024Q250.62 46.562 250.512 45.662Q250.44 45.338 250.44 44.906L250.428 41.006Q250.428 40.034 251.022 39.464Q251.616 38.894 252.58800000000002 38.894Q253.5 38.894 254.07600000000002 39.47Q254.65200000000002 40.046 254.65200000000002 41.006V41.306Q254.65200000000002 41.366 254.61 41.408Q254.568 41.45 254.508 41.45H253.404Q253.344 41.45 253.30200000000002 41.408Q253.26000000000002 41.366 253.26000000000002 41.306V41.078Q253.26000000000002 40.67 253.062 40.400000000000006Q252.864 40.13 252.58800000000002 40.13Q252.252 40.13 252.04200000000003 40.394000000000005Q251.83200000000002 40.658 251.83200000000002 41.078V42.314Q251.83200000000002 42.35 251.856 42.362Q251.88 42.374 251.904 42.35Q252.252 42.026 252.768 42.026Q253.596 42.026 254.11200000000002 42.554Q254.62800000000001 43.082 254.71200000000002 43.958Q254.77200000000002 44.354 254.77200000000002 44.798ZM253.368 44.702Q253.368 44.39 253.30800000000002 43.85Q253.16400000000002 43.154 252.6 43.154Q252.312 43.154 252.126 43.34Q251.94 43.526 251.88 43.886Q251.83200000000002 44.306 251.83200000000002 44.702Q251.83200000000002 45.05 251.868 45.506Q251.928 45.89 252.114 46.094Q252.3 46.298 252.6 46.298Q252.9 46.298 253.086 46.082Q253.27200000000002 45.866 253.332 45.47Q253.368 45.038000000000004 253.368 44.702Z" fill="black" stroke="none" data-role="number" data-axis="row" data-index="0" /><path d="M253.896 71.74600000000001Q254.29199999999997 71.974 254.49599999999998 72.44200000000001Q254.748 73.006 254.748 73.714Q254.748 74.35000000000001 254.55599999999998 74.83Q254.31599999999997 75.47800000000001 253.80599999999998 75.84400000000001Q253.296 76.21000000000001 252.588 76.21000000000001Q251.89199999999997 76.21000000000001 251.38199999999998 75.85000000000001Q250.87199999999999 75.49000000000001 250.63199999999998 74.842Q250.45199999999997 74.33800000000001 250.45199999999997 73.714Q250.45199999999997 73.006 250.66799999999998 72.50200000000001Q250.84799999999998 72.022 251.30399999999997 71.75800000000001Q251.35199999999998 71.72200000000001 251.30399999999997 71.686Q250.908 71.434 250.69199999999998 70.99000000000001Q250.45199999999997 70.474 250.45199999999997 69.83800000000001Q250.45199999999997 69.14200000000001 250.69199999999998 68.674Q250.932 68.146 251.42999999999998 67.858Q251.92799999999997 67.57000000000001 252.588 67.57000000000001Q253.236 67.57000000000001 253.73399999999998 67.852Q254.23199999999997 68.134 254.48399999999998 68.662Q254.748 69.166 254.748 69.83800000000001Q254.748 70.462 254.50799999999998 70.96600000000001Q254.29199999999997 71.41000000000001 253.896 71.662Q253.82399999999998 71.71000000000001 253.896 71.74600000000001ZM251.90399999999997 69.406Q251.82 69.622 251.82 69.958Q251.82 70.318 251.93999999999997 70.64200000000001Q252.02399999999997 70.894 252.19199999999998 71.03800000000001Q252.35999999999999 71.182 252.588 71.182Q252.83999999999997 71.182 253.01399999999998 71.03200000000001Q253.188 70.882 253.272 70.60600000000001Q253.368 70.318 253.368 69.958Q253.368 69.55000000000001 253.248 69.298Q253.164 69.046 252.99599999999998 68.90800000000002Q252.82799999999997 68.77000000000001 252.588 68.77000000000001Q252.37199999999999 68.77000000000001 252.20999999999998 68.89600000000002Q252.04799999999997 69.022 251.96399999999997 69.238ZM253.368 73.64200000000001Q253.368 73.186 253.26 72.86200000000001Q253.188 72.574 253.01399999999998 72.412Q252.83999999999997 72.25 252.588 72.25Q252.33599999999998 72.25 252.16199999999998 72.418Q251.98799999999997 72.586 251.91599999999997 72.89800000000001Q251.82 73.21000000000001 251.82 73.61800000000001Q251.82 73.99000000000001 251.89199999999997 74.302Q251.95199999999997 74.638 252.13799999999998 74.82400000000001Q252.32399999999998 75.01 252.588 75.01Q252.86399999999998 75.01 253.05599999999998 74.81800000000001Q253.248 74.626 253.308 74.278Q253.368 73.95400000000001 253.368 73.64200000000001Z" fill="black" stroke="none" data-role="number" data-axis="row" data-index="1" /><path d="M254.754 102.126Q254.754 102.714 254.67 103.134Q254.52599999999998 103.95 254.01599999999996 104.394Q253.50599999999997 104.83800000000001 252.63 104.83800000000001Q251.718 104.83800000000001 251.142 104.352Q250.56599999999997 103.866 250.49399999999997 103.02600000000001Q250.47 102.762 250.446 102.25800000000001Q250.446 102.114 250.58999999999997 102.114H251.694Q251.838 102.114 251.838 102.25800000000001Q251.862 102.66600000000001 251.886 102.87Q251.946 103.242 252.13799999999998 103.44Q252.32999999999998 103.638 252.63 103.638Q252.91799999999998 103.638 253.10999999999999 103.452Q253.302 103.266 253.362 102.918Q253.422 102.558 253.422 101.982Q253.422 101.37 253.338 100.962Q253.266 100.65 253.08599999999998 100.482Q252.90599999999998 100.31400000000001 252.63 100.31400000000001Q252.45 100.31400000000001 252.30599999999998 100.422Q252.23399999999998 100.47 252.19799999999998 100.47Q252.17399999999998 100.47 252.10199999999998 100.422L251.53799999999998 99.846Q251.48999999999998 99.798 251.48999999999998 99.738Q251.48999999999998 99.69 251.52599999999998 99.64200000000001L253.02599999999998 97.602Q253.04999999999998 97.578 253.03199999999998 97.554Q253.01399999999998 97.53 252.97799999999998 97.53H250.69799999999998Q250.63799999999998 97.53 250.59599999999998 97.488Q250.55399999999997 97.446 250.55399999999997 97.38600000000001V96.486Q250.55399999999997 96.426 250.59599999999998 96.384Q250.63799999999998 96.342 250.69799999999998 96.342H254.58599999999998Q254.646 96.342 254.688 96.384Q254.73 96.426 254.73 96.486V97.434Q254.73 97.518 254.67 97.614L253.302 99.486Q253.254 99.558 253.326 99.57000000000001Q253.81799999999998 99.63000000000001 254.17199999999997 100.03800000000001Q254.52599999999998 100.446 254.646 101.058Q254.754 101.53800000000001 254.754 102.126Z" fill="black" stroke="none" data-role="number" data-axis="row" data-index="2" /><path d="M254.754 130.82599999999996Q254.754 131.414 254.67 131.83399999999997Q254.52599999999998 132.64999999999998 254.01599999999996 133.094Q253.50599999999997 133.53799999999998 252.63 133.53799999999998Q251.718 133.53799999999998 251.142 133.05199999999996Q250.56599999999997 132.56599999999997 250.49399999999997 131.72599999999997Q250.47 131.462 250.446 130.95799999999997Q250.446 130.81399999999996 250.58999999999997 130.81399999999996H251.694Q251.838 130.81399999999996 251.838 130.95799999999997Q251.862 131.36599999999999 251.886 131.56999999999996Q251.946 131.94199999999998 252.13799999999998 132.14Q252.32999999999998 132.33799999999997 252.63 132.33799999999997Q252.91799999999998 132.33799999999997 253.10999999999999 132.152Q253.302 131.96599999999998 253.362 131.61799999999997Q253.422 131.25799999999998 253.422 130.682Q253.422 130.07 253.338 129.66199999999998Q253.266 129.34999999999997 253.08599999999998 129.18199999999996Q252.90599999999998 129.01399999999998 252.63 129.01399999999998Q252.45 129.01399999999998 252.30599999999998 129.12199999999999Q252.23399999999998 129.17 252.19799999999998 129.17Q252.17399999999998 129.17 252.10199999999998 129.12199999999999L251.53799999999998 128.546Q251.48999999999998 128.498 251.48999999999998 128.438Q251.48999999999998 128.39 251.52599999999998 128.34199999999998L253.02599999999998 126.30199999999998Q253.04999999999998 126.27799999999998 253.03199999999998 126.25399999999998Q253.01399999999998 126.22999999999998 252.97799999999998 126.22999999999998H250.69799999999998Q250.63799999999998 126.22999999999998 250.59599999999998 126.18799999999997Q250.55399999999997 126.14599999999997 250.55399999999997 126.08599999999998V125.18599999999998Q250.55399999999997 125.12599999999998 250.59599999999998 125.08399999999997Q250.63799999999998 125.04199999999997 250.69799999999998 125.04199999999997H254.58599999999998Q254.646 125.04199999999997 254.688 125.08399999999997Q254.73 125.12599999999998 254.73 125.18599999999998V126.13399999999999Q254.73 126.21799999999998 254.67 126.31399999999998L253.302 128.18599999999998Q253.254 128.25799999999998 253.326 128.26999999999998Q253.81799999999998 128.32999999999998 254.17199999999997 128.738Q254.52599999999998 129.146 254.646 129.75799999999998Q254.754 130.23799999999997 254.754 130.82599999999996Z" fill="black" stroke="none" data-role="number" data-axis="row" data-index="3" /><path d="M254.754 159.52599999999995Q254.754 160.11399999999998 254.67 160.53399999999996Q254.52599999999998 161.34999999999997 254.01599999999996 161.79399999999998Q253.50599999999997 162.23799999999997 252.63 162.23799999999997Q251.718 162.23799999999997 251.142 161.75199999999995Q250.56599999999997 161.26599999999996 250.49399999999997 160.42599999999996Q250.47 160.16199999999998 250.446 159.65799999999996Q250.446 159.51399999999995 250.58999999999997 159.51399999999995H251.694Q251.838 159.51399999999995 251.838 159.65799999999996Q251.862 160.06599999999997 251.886 160.26999999999995Q251.946 160.64199999999997 252.13799999999998 160.83999999999997Q252.32999999999998 161.03799999999995 252.63 161.03799999999995Q252.91799999999998 161.03799999999995 253.10999999999999 160.85199999999998Q253.302 160.66599999999997 253.362 160.31799999999996Q253.422 159.95799999999997 253.422 159.38199999999998Q253.422 158.76999999999998 253.338 158.36199999999997Q253.266 158.04999999999995 253.08599999999998 157.88199999999995Q252.90599999999998 157.71399999999997 252.63 157.71399999999997Q252.45 157.71399999999997 252.30599999999998 157.82199999999997Q252.23399999999998 157.86999999999998 252.19799999999998 157.86999999999998Q252.17399999999998 157.86999999999998 252.10199999999998 157.82199999999997L251.53799999999998 157.24599999999998Q251.48999999999998 157.19799999999998 251.48999999999998 157.13799999999998Q251.48999999999998 157.08999999999997 251.52599999999998 157.04199999999997L253.02599999999998 155.00199999999995Q253.04999999999998 154.97799999999998 253.03199999999998 154.95399999999998Q253.01399999999998 154.92999999999998 252.97799999999998 154.92999999999998H250.69799999999998Q250.63799999999998 154.92999999999998 250.59599999999998 154.88799999999998Q250.55399999999997 154.84599999999998 250.55399999999997 154.78599999999997V153.88599999999997Q250.55399999999997 153.82599999999996 250.59599999999998 153.78399999999996Q250.63799999999998 153.74199999999996 250.69799999999998 153.74199999999996H254.58599999999998Q254.646 153.74199999999996 254.688 153.78399999999996Q254.73 153.82599999999996 254.73 153.88599999999997V154.83399999999997Q254.73 154.91799999999998 254.67 155.01399999999995L253.302 156.88599999999997Q253.254 156.95799999999997 253.326 156.96999999999997Q253.81799999999998 157.02999999999997 254.17199999999997 157.438Q254.52599999999998 157.84599999999998 254.646 158.45799999999997Q254.754 158.93799999999996 254.754 159.52599999999995Z" fill="black" stroke="none" data-role="number" data-axis="row" data-index="4" /><path d="M254.754 188.22599999999997Q254.754 188.814 254.67 189.23399999999998Q254.52599999999998 190.04999999999998 254.01599999999996 190.49399999999997Q253.50599999999997 190.938 252.63 190.938Q251.718 190.938 251.142 190.452Q250.56599999999997 189.96599999999998 250.49399999999997 189.12599999999998Q250.47 188.862 250.446 188.35799999999998Q250.446 188.214 250.58999999999997 188.214H251.694Q251.838 188.214 251.838 188.35799999999998Q251.862 188.766 251.886 188.96999999999997Q251.946 189.34199999999998 252.13799999999998 189.53999999999996Q252.32999999999998 189.73799999999997 252.63 189.73799999999997Q252.91799999999998 189.73799999999997 253.10999999999999 189.55199999999996Q253.302 189.36599999999999 253.362 189.01799999999997Q253.422 188.658 253.422 188.082Q253.422 187.46999999999997 253.338 187.06199999999998Q253.266 186.74999999999997 253.08599999999998 186.582Q252.90599999999998 186.414 252.63 186.414Q252.45 186.414 252.30599999999998 186.522Q252.23399999999998 186.57 252.19799999999998 186.57Q252.17399999999998 186.57 252.10199999999998 186.522L251.53799999999998 185.946Q251.48999999999998 185.898 251.48999999999998 185.838Q251.48999999999998 185.79 251.52599999999998 185.742L253.02599999999998 183.702Q253.04999999999998 183.678 253.03199999999998 183.654Q253.01399999999998 183.63 252.97799999999998 183.63H250.69799999999998Q250.63799999999998 183.63 250.59599999999998 183.588Q250.55399999999997 183.546 250.55399999999997 183.486V182.58599999999998Q250.55399999999997 182.52599999999998 250.59599999999998 182.48399999999998Q250.63799999999998 182.44199999999998 250.69799999999998 182.44199999999998H254.58599999999998Q254.646 182.44199999999998 254.688 182.48399999999998Q254.73 182.52599999999998 254.73 182.58599999999998V183.534Q254.73 183.618 254.67 183.714L253.302 185.58599999999998Q253.254 185.658 253.326 185.67Q253.81799999999998 185.73 254.17199999999997 186.13799999999998Q254.52599999999998 186.546 254.646 187.158Q254.754 187.63799999999998 254.754 188.22599999999997Z" fill="black" stroke="none" data-role="number" data-axis="row" data-index="5" /><path d="M254.754 216.92599999999996Q254.754 217.51399999999998 254.67 217.93399999999997Q254.52599999999998 218.74999999999997 254.01599999999996 219.19399999999996Q253.50599999999997 219.63799999999998 252.63 219.63799999999998Q251.718 219.63799999999998 251.142 219.152Q250.56599999999997 218.66599999999997 250.49399999999997 217.82599999999996Q250.47 217.56199999999998 250.446 217.05799999999996Q250.446 216.914 250.58999999999997 216.914H251.694Q251.838 216.914 251.838 217.05799999999996Q251.862 217.46599999999998 251.886 217.66999999999996Q251.946 218.04199999999997 252.13799999999998 218.23999999999995Q252.32999999999998 218.43799999999996 252.63 218.43799999999996Q252.91799999999998 218.43799999999996 253.10999999999999 218.25199999999995Q253.302 218.06599999999997 253.362 217.71799999999996Q253.422 217.35799999999998 253.422 216.78199999999998Q253.422 216.16999999999996 253.338 215.76199999999997Q253.266 215.44999999999996 253.08599999999998 215.28199999999998Q252.90599999999998 215.11399999999998 252.63 215.11399999999998Q252.45 215.11399999999998 252.30599999999998 215.22199999999998Q252.23399999999998 215.26999999999998 252.19799999999998 215.26999999999998Q252.17399999999998 215.26999999999998 252.10199999999998 215.22199999999998L251.53799999999998 214.646Q251.48999999999998 214.59799999999998 251.48999999999998 214.53799999999998Q251.48999999999998 214.48999999999998 251.52599999999998 214.44199999999998L253.02599999999998 212.402Q253.04999999999998 212.378 253.03199999999998 212.35399999999998Q253.01399999999998 212.32999999999998 252.97799999999998 212.32999999999998H250.69799999999998Q250.63799999999998 212.32999999999998 250.59599999999998 212.28799999999998Q250.55399999999997 212.24599999999998 250.55399999999997 212.18599999999998V211.28599999999997Q250.55399999999997 211.22599999999997 250.59599999999998 211.18399999999997Q250.63799999999998 211.14199999999997 250.69799999999998 211.14199999999997H254.58599999999998Q254.646 211.14199999999997 254.688 211.18399999999997Q254.73 211.22599999999997 254.73 211.28599999999997V212.23399999999998Q254.73 212.31799999999998 254.67 212.414L253.302 214.28599999999997Q253.254 214.35799999999998 253.326 214.36999999999998Q253.81799999999998 214.42999999999998 254.17199999999997 214.83799999999997Q254.52599999999998 215.24599999999998 254.646 215.85799999999998Q254.754 216.33799999999997 254.754 216.92599999999996Z" fill="black" stroke="none" data-role="number" data-axis="row" data-index="6" /><path d="M254.754 245.62599999999995Q254.754 246.21399999999997 254.67 246.63399999999996Q254.52599999999998 247.44999999999996 254.01599999999996 247.89399999999995Q253.50599999999997 248.33799999999997 252.63 248.33799999999997Q251.718 248.33799999999997 251.142 247.85199999999998Q250.56599999999997 247.36599999999996 250.49399999999997 246.52599999999995Q250.47 246.26199999999997 250.446 245.75799999999995Q250.446 245.61399999999998 250.58999999999997 245.61399999999998H251.694Q251.838 245.61399999999998 251.838 245.75799999999995Q251.862 246.16599999999997 251.886 246.36999999999995Q251.946 246.74199999999996 252.13799999999998 246.93999999999994Q252.32999999999998 247.13799999999995 252.63 247.13799999999995Q252.91799999999998 247.13799999999995 253.10999999999999 246.95199999999994Q253.302 246.76599999999996 253.362 246.41799999999995Q253.422 246.05799999999996 253.422 245.48199999999997Q253.422 244.86999999999995 253.338 244.46199999999996Q253.266 244.14999999999995 253.08599999999998 243.98199999999997Q252.90599999999998 243.81399999999996 252.63 243.81399999999996Q252.45 243.81399999999996 252.30599999999998 243.92199999999997Q252.23399999999998 243.96999999999997 252.19799999999998 243.96999999999997Q252.17399999999998 243.96999999999997 252.10199999999998 243.92199999999997L251.53799999999998 243.34599999999998Q251.48999999999998 243.29799999999997 251.48999999999998 243.23799999999997Q251.48999999999998 243.18999999999997 251.52599999999998 243.14199999999997L253.02599999999998 241.10199999999998Q253.04999999999998 241.07799999999997 253.03199999999998 241.05399999999997Q253.01399999999998 241.02999999999997 252.97799999999998 241.02999999999997H250.69799999999998Q250.63799999999998 241.02999999999997 250.59599999999998 240.98799999999997Q250.55399999999997 240.94599999999997 250.55399999999997 240.88599999999997V239.98599999999996Q250.55399999999997 239.92599999999996 250.59599999999998 239.88399999999996Q250.63799999999998 239.84199999999996 250.69799999999998 239.84199999999996H254.58599999999998Q254.646 239.84199999999996 254.688 239.88399999999996Q254.73 239.92599999999996 254.73 239.98599999999996V240.93399999999997Q254.73 241.01799999999997 254.67 241.11399999999998L253.302 242.98599999999996Q253.254 243.05799999999996 253.326 243.06999999999996Q253.81799999999998 243.12999999999997 254.17199999999997 243.53799999999995Q254.52599999999998 243.94599999999997 254.646 244.55799999999996Q254.754 245.03799999999995 254.754 245.62599999999995Z" fill="black" stroke="none" data-role="number" data-axis="row" data-index="7" /></svg>